<svg width="27" height="27" viewBox="0 0 27 27" fill="none" xmlns="http://www.w3.org/2000/svg">
<path d="M10.903 12.319C11.1494 12.1406 11.2684 11.8461 11.2684 11.4411C11.2769 11.2485 11.2372 11.0588 11.1522 10.886C11.0758 10.7473 10.9625 10.6312 10.8237 10.549C10.6798 10.4618 10.52 10.404 10.3536 10.3791C10.1724 10.3451 9.98828 10.3281 9.80703 10.331H7.81611V12.5881H9.97129C10.3423 12.5909 10.6566 12.5003 10.903 12.319ZM11.2372 14.3581C10.9597 14.1457 10.5887 14.0409 10.1271 14.0409H7.81045V16.703H10.0817C10.2941 16.703 10.4896 16.6832 10.6793 16.6436C10.8588 16.6084 11.03 16.5392 11.1834 16.4396C11.3278 16.3462 11.4439 16.2188 11.5317 16.0545C11.6167 15.8902 11.6592 15.6807 11.6592 15.4286C11.6592 14.9273 11.5176 14.5733 11.2372 14.3581ZM13.5 0.8125C6.49356 0.8125 0.8125 6.49356 0.8125 13.5C0.8125 20.5064 6.49356 26.1875 13.5 26.1875C20.5064 26.1875 26.1875 20.5064 26.1875 13.5C26.1875 6.49356 20.5064 0.8125 13.5 0.8125ZM15.9497 8.9376H19.8692V9.89199H15.9497V8.9376ZM13.5 16.8078C13.3167 17.1558 13.0549 17.4564 12.7354 17.6857C12.4012 17.918 12.0302 18.0879 11.6365 18.187C11.2247 18.2974 10.7998 18.3517 10.3734 18.3484H5.68359V8.68838H10.2432C10.7048 8.68838 11.1239 8.73086 11.5063 8.81016C11.8857 8.88945 12.2086 9.02539 12.4805 9.20947C12.7495 9.39355 12.9619 9.63994 13.112 9.9458C13.2593 10.2488 13.3357 10.6283 13.3357 11.0786C13.3357 11.5657 13.2253 11.9679 13.0044 12.2936C12.7807 12.6192 12.4578 12.8826 12.0188 13.0894C12.6164 13.2593 13.0554 13.5623 13.3442 13.9871C13.6388 14.4176 13.7832 14.933 13.7832 15.5391C13.7832 16.0318 13.6897 16.4538 13.5 16.8078ZM21.3957 15.3125H16.3434C16.3434 15.8619 16.5331 16.3887 16.8191 16.6719C17.108 16.9522 17.5215 17.0938 18.0624 17.0938C18.4532 17.0938 18.7846 16.9947 19.0678 16.7993C19.3481 16.6039 19.5181 16.3972 19.5804 16.1819H21.2739C21.0021 17.023 20.5886 17.6234 20.0278 17.9859C19.4728 18.3484 18.7931 18.5297 18.0029 18.5297C17.4507 18.5297 16.9551 18.4391 16.5104 18.2663C16.0828 18.0992 15.6977 17.8443 15.3805 17.5158C15.0677 17.1785 14.826 16.7817 14.6696 16.349C14.4969 15.8704 14.4119 15.3663 14.4176 14.8594C14.4176 14.3354 14.5054 13.8483 14.6753 13.3952C15.001 12.5145 15.6778 11.8093 16.5416 11.4439C17.0032 11.2514 17.4988 11.1551 18.0001 11.1607C18.5948 11.1607 19.1103 11.274 19.5577 11.5063C19.9885 11.728 20.3625 12.0458 20.6509 12.4352C20.9369 12.8231 21.138 13.2649 21.2654 13.7634C21.3872 14.2533 21.4297 14.7688 21.3957 15.3125ZM17.9406 12.6051C17.6348 12.6051 17.3771 12.6589 17.1788 12.7637C16.9806 12.8685 16.8163 12.9987 16.6917 13.1488C16.573 13.2938 16.4853 13.4615 16.434 13.6416C16.3887 13.7917 16.3575 13.9446 16.3462 14.1004H19.4756C19.4303 13.6104 19.2604 13.2479 19.0338 12.9931C18.7959 12.741 18.4136 12.6051 17.9406 12.6051Z" fill="white"/>
</svg>
