<svg width="774" height="492" fill="none" xmlns="http://www.w3.org/2000/svg"><path fill="#AD68ED" d="M24 58h143v147H24z"/><path fill="#1FA0A0" d="M24 291h143v147H24z"/><path fill="#F16529" d="M430 291h143v62H430zM429 363h143v62H429z"/><path fill="#233466" d="M431 58h143v147H431z"/><path fill="#AD68ED" d="M191 58h143v147H191z"/><path fill="#1FA0A0" d="M191 291h143v147H191z"/><path fill="#F16529" d="M597 291h143v62H597zM597 363h143v62H597z"/><path fill="#233466" d="M598 58h143v147H598z"/><path d="M21.734 20a.454.454 0 0 1-.306-.108.454.454 0 0 1-.108-.306V9.002h-3.456a.454.454 0 0 1-.306-.108.454.454 0 0 1-.108-.306v-.756c0-.132.036-.234.108-.306a.417.417 0 0 1 .306-.126h8.676c.132 0 .234.042.306.126a.381.381 0 0 1 .126.306v.756c0 .12-.042.222-.126.306-.072.072-.174.108-.306.108h-3.438v10.584c0 .12-.042.222-.126.306-.072.072-.174.108-.306.108h-.936Zm7.085 0a.454.454 0 0 1-.306-.108.454.454 0 0 1-.108-.306V7.634a.39.39 0 0 1 .108-.288.417.417 0 0 1 .306-.126h.9c.132 0 .234.042.306.126a.39.39 0 0 1 .108.288v4.194a3.8 3.8 0 0 1 1.188-.99c.468-.252 1.062-.378 1.782-.378.78 0 1.44.174 1.98.522.552.336.966.81 1.242 1.422.288.6.432 1.302.432 2.106v5.076c0 .12-.036.222-.108.306-.072.072-.174.108-.306.108h-.9a.454.454 0 0 1-.306-.108.454.454 0 0 1-.108-.306V14.6c0-.84-.204-1.494-.612-1.962-.408-.48-1.008-.72-1.8-.72-.744 0-1.344.24-1.8.72-.456.468-.684 1.122-.684 1.962v4.986c0 .12-.036.222-.108.306-.072.072-.174.108-.306.108h-.9Zm10.95 0a.454.454 0 0 1-.306-.108.454.454 0 0 1-.108-.306v-8.532a.39.39 0 0 1 .108-.288.417.417 0 0 1 .306-.126h.864a.36.36 0 0 1 .288.126.39.39 0 0 1 .108.288v8.532c0 .12-.036.222-.108.306a.39.39 0 0 1-.288.108h-.864Zm-.144-11.106a.454.454 0 0 1-.306-.108.454.454 0 0 1-.108-.306v-.972a.39.39 0 0 1 .108-.288.417.417 0 0 1 .306-.126h1.134a.36.36 0 0 1 .288.126.36.36 0 0 1 .126.288v.972c0 .12-.042.222-.126.306a.39.39 0 0 1-.288.108h-1.134ZM44.305 20a.454.454 0 0 1-.306-.108.454.454 0 0 1-.108-.306v-8.532a.39.39 0 0 1 .108-.288.417.417 0 0 1 .306-.126h.846a.36.36 0 0 1 .288.126.36.36 0 0 1 .126.288v.792a3.602 3.602 0 0 1 1.17-.99c.48-.264 1.092-.396 1.836-.396.78 0 1.44.174 1.98.522.552.336.966.81 1.242 1.422.276.6.414 1.302.414 2.106v5.076c0 .12-.036.222-.108.306a.39.39 0 0 1-.288.108h-.9a.454.454 0 0 1-.306-.108.454.454 0 0 1-.108-.306V14.6c0-.84-.204-1.494-.612-1.962-.408-.48-1.008-.72-1.8-.72-.744 0-1.344.24-1.8.72-.444.468-.666 1.122-.666 1.962v4.986c0 .12-.042.222-.126.306a.39.39 0 0 1-.288.108h-.9Zm10.934 0a.454.454 0 0 1-.306-.108.454.454 0 0 1-.108-.306V7.634a.39.39 0 0 1 .108-.288.417.417 0 0 1 .306-.126h.846a.36.36 0 0 1 .288.126.36.36 0 0 1 .126.288v6.264l3.546-2.952c.144-.12.252-.198.324-.234.084-.048.216-.072.396-.072h.954a.366.366 0 0 1 .378.378.323.323 0 0 1-.054.162.44.44 0 0 1-.162.18l-4.158 3.456 4.608 4.482c.144.12.216.228.216.324a.366.366 0 0 1-.378.378h-.936c-.18 0-.312-.018-.396-.054a2.012 2.012 0 0 1-.324-.252l-4.014-3.834v3.726c0 .12-.042.222-.126.306a.39.39 0 0 1-.288.108h-.846ZM22.616 280.18c-1.044 0-1.92-.156-2.628-.468-.708-.324-1.254-.738-1.638-1.242-.372-.516-.57-1.062-.594-1.638 0-.096.036-.18.108-.252a.396.396 0 0 1 .288-.126h.918c.144 0 .252.036.324.108.072.072.12.156.144.252.06.288.204.576.432.864.24.276.57.51.99.702.432.18.984.27 1.656.27 1.032 0 1.788-.18 2.268-.54.492-.372.738-.864.738-1.476 0-.42-.132-.756-.396-1.008-.252-.264-.642-.498-1.17-.702a24.718 24.718 0 0 0-2.052-.666c-.876-.252-1.602-.528-2.178-.828-.576-.3-1.008-.672-1.296-1.116-.276-.444-.414-1.008-.414-1.692 0-.648.174-1.224.522-1.728.348-.516.846-.924 1.494-1.224.66-.3 1.458-.45 2.394-.45.744 0 1.392.102 1.944.306.564.192 1.032.456 1.404.792.372.324.654.678.846 1.062.192.372.294.738.306 1.098 0 .084-.03.168-.09.252-.06.072-.156.108-.288.108h-.954a.607.607 0 0 1-.27-.072c-.084-.048-.15-.138-.198-.27-.072-.492-.348-.906-.828-1.242-.48-.336-1.104-.504-1.872-.504-.78 0-1.416.15-1.908.45-.48.3-.72.768-.72 1.404 0 .408.114.75.342 1.026.228.264.588.498 1.08.702.492.204 1.134.42 1.926.648.96.264 1.746.546 2.358.846.612.288 1.062.654 1.35 1.098.3.432.45.99.45 1.674 0 .756-.198 1.404-.594 1.944-.396.528-.954.936-1.674 1.224-.708.276-1.548.414-2.52.414Zm9.523 0c-.6 0-1.146-.12-1.638-.36a3.167 3.167 0 0 1-1.188-.972 2.28 2.28 0 0 1-.45-1.386c0-.828.336-1.488 1.008-1.98.672-.492 1.548-.816 2.628-.972l2.682-.378v-.522c0-.576-.168-1.026-.504-1.35-.324-.324-.858-.486-1.602-.486-.54 0-.978.108-1.314.324a1.754 1.754 0 0 0-.684.828c-.072.18-.198.27-.378.27h-.81c-.132 0-.234-.036-.306-.108a.483.483 0 0 1-.09-.288c0-.18.066-.402.198-.666.144-.264.36-.522.648-.774a3.567 3.567 0 0 1 1.098-.63c.456-.18 1.008-.27 1.656-.27.72 0 1.326.096 1.818.288.492.18.876.426 1.152.738.288.312.492.666.612 1.062.132.396.198.798.198 1.206v5.832c0 .12-.042.222-.126.306a.39.39 0 0 1-.288.108h-.828c-.132 0-.234-.036-.306-.108a.454.454 0 0 1-.108-.306v-.774a3.517 3.517 0 0 1-.63.648 3.65 3.65 0 0 1-.99.522c-.396.132-.882.198-1.458.198Zm.378-1.35c.492 0 .942-.102 1.35-.306.408-.216.726-.546.954-.99.24-.444.36-1.002.36-1.674v-.504l-2.088.306c-.852.12-1.494.324-1.926.612-.432.276-.648.63-.648 1.062 0 .336.096.618.288.846.204.216.456.378.756.486.312.108.63.162.954.162Zm8.389 4.59a.345.345 0 0 1-.252-.108.345.345 0 0 1-.109-.252c0-.048.006-.096.018-.144a.926.926 0 0 1 .072-.18l1.387-3.294-3.438-8.118a.956.956 0 0 1-.09-.306.366.366 0 0 1 .377-.378h.883c.12 0 .215.03.288.09.072.06.12.132.143.216l2.736 6.552 2.809-6.552a.681.681 0 0 1 .144-.216.465.465 0 0 1 .305-.09h.846c.108 0 .199.036.27.108a.345.345 0 0 1 .108.252c0 .06-.03.168-.09.324l-5.111 11.79a.57.57 0 0 1-.163.216c-.06.06-.156.09-.288.09h-.845ZM431.98 17c-.132 0-.234-.036-.306-.108a.454.454 0 0 1-.108-.306V4.832c0-.132.036-.234.108-.306a.381.381 0 0 1 .306-.126h4.086c1.236 0 2.232.186 2.988.558.756.372 1.308.924 1.656 1.656.348.72.528 1.608.54 2.664.012.54.018 1.014.018 1.422 0 .408-.006.876-.018 1.404-.024 1.104-.21 2.022-.558 2.754-.336.72-.876 1.26-1.62 1.62-.732.348-1.704.522-2.916.522h-4.176Zm1.35-1.53h2.736c.828 0 1.488-.114 1.98-.342a2.066 2.066 0 0 0 1.062-1.098c.228-.504.348-1.17.36-1.998.024-.36.036-.672.036-.936v-.81c0-.276-.012-.588-.036-.936-.024-1.164-.3-2.022-.828-2.574-.528-.564-1.416-.846-2.664-.846h-2.646v9.54Zm14.246 1.71c-.912 0-1.674-.174-2.286-.522a3.526 3.526 0 0 1-1.404-1.44c-.324-.624-.504-1.332-.54-2.124a13.625 13.625 0 0 1-.018-.774c0-.324.006-.582.018-.774.036-.804.216-1.512.54-2.124a3.647 3.647 0 0 1 1.422-1.44c.612-.348 1.368-.522 2.268-.522.9 0 1.656.174 2.268.522.612.348 1.08.828 1.404 1.44.336.612.522 1.32.558 2.124.012.192.018.45.018.774 0 .312-.006.57-.018.774-.036.792-.216 1.5-.54 2.124a3.526 3.526 0 0 1-1.404 1.44c-.612.348-1.374.522-2.286.522Zm0-1.386c.744 0 1.338-.234 1.782-.702.444-.48.684-1.176.72-2.088.012-.18.018-.408.018-.684 0-.276-.006-.504-.018-.684-.036-.912-.276-1.602-.72-2.07-.444-.48-1.038-.72-1.782-.72s-1.344.24-1.8.72c-.444.468-.678 1.158-.702 2.07-.012.18-.018.408-.018.684 0 .276.006.504.018.684.024.912.258 1.608.702 2.088.456.468 1.056.702 1.8.702ZM431.98 277c-.132 0-.234-.036-.306-.108a.454.454 0 0 1-.108-.306v-11.754c0-.132.036-.234.108-.306a.381.381 0 0 1 .306-.126h7.344c.132 0 .234.042.306.126.072.072.108.174.108.306v.72c0 .132-.036.234-.108.306-.072.072-.174.108-.306.108h-6.012v4.194h5.652c.132 0 .234.042.306.126.072.072.108.174.108.306v.72c0 .12-.036.222-.108.306-.072.072-.174.108-.306.108h-5.652v4.86c0 .12-.042.222-.126.306-.072.072-.174.108-.306.108h-.9Zm13.396.18c-1.236 0-2.22-.378-2.952-1.134-.732-.768-1.134-1.812-1.206-3.132a8.01 8.01 0 0 1-.018-.594c0-.252.006-.456.018-.612.048-.852.246-1.596.594-2.232a3.714 3.714 0 0 1 1.422-1.494c.612-.348 1.326-.522 2.142-.522.912 0 1.674.192 2.286.576.624.384 1.098.93 1.422 1.638.324.708.486 1.536.486 2.484v.306a.381.381 0 0 1-.126.306.39.39 0 0 1-.288.108h-6.228V273.04c.024.492.132.954.324 1.386.192.42.468.762.828 1.026.36.264.792.396 1.296.396.432 0 .792-.066 1.08-.198.288-.132.522-.276.702-.432.18-.168.3-.294.36-.378.108-.156.192-.246.252-.27a.582.582 0 0 1 .288-.054h.864a.39.39 0 0 1 .288.108c.084.06.12.15.108.27-.012.18-.108.402-.288.666-.18.252-.438.504-.774.756a4.509 4.509 0 0 1-1.224.63c-.48.156-1.032.234-1.656.234Zm-2.448-5.544h4.932v-.054c0-.54-.102-1.02-.306-1.44a2.275 2.275 0 0 0-.846-.99c-.372-.252-.816-.378-1.332-.378-.516 0-.96.126-1.332.378-.36.24-.636.57-.828.99-.192.42-.288.9-.288 1.44v.054Zm12.521 5.544c-1.236 0-2.22-.378-2.952-1.134-.732-.768-1.134-1.812-1.206-3.132a8.01 8.01 0 0 1-.018-.594c0-.252.006-.456.018-.612.048-.852.246-1.596.594-2.232a3.714 3.714 0 0 1 1.422-1.494c.612-.348 1.326-.522 2.142-.522.912 0 1.674.192 2.286.576.624.384 1.098.93 1.422 1.638.324.708.486 1.536.486 2.484v.306a.381.381 0 0 1-.126.306.39.39 0 0 1-.288.108h-6.228V273.04c.024.492.132.954.324 1.386.192.42.468.762.828 1.026.36.264.792.396 1.296.396.432 0 .792-.066 1.08-.198.288-.132.522-.276.702-.432.18-.168.3-.294.36-.378.108-.156.192-.246.252-.27a.582.582 0 0 1 .288-.054h.864a.39.39 0 0 1 .288.108c.084.06.12.15.108.27-.012.18-.108.402-.288.666-.18.252-.438.504-.774.756a4.509 4.509 0 0 1-1.224.63c-.48.156-1.032.234-1.656.234Zm-2.448-5.544h4.932v-.054c0-.54-.102-1.02-.306-1.44a2.275 2.275 0 0 0-.846-.99c-.372-.252-.816-.378-1.332-.378-.516 0-.96.126-1.332.378-.36.24-.636.57-.828.99-.192.42-.288.9-.288 1.44v.054Zm9.226 5.364a.454.454 0 0 1-.306-.108.454.454 0 0 1-.108-.306v-11.952a.39.39 0 0 1 .108-.288.417.417 0 0 1 .306-.126h.846c.132 0 .234.042.306.126a.39.39 0 0 1 .108.288v11.952c0 .12-.036.222-.108.306-.072.072-.174.108-.306.108h-.846Z" fill="#fff"/><path stroke="#979797" d="m374.5 14.999 1.03 477"/><path stroke="#C4C4C4" d="m.999 253.5 773-1.003"/><path d="M59.517 112v-11.28h1.312v4.992h6.768v-4.992h1.312V112h-1.312v-5.152h-6.768V112h-1.312Zm15.228.144c-.758 0-1.413-.165-1.968-.496a3.409 3.409 0 0 1-1.296-1.392c-.299-.608-.448-1.323-.448-2.144 0-.821.15-1.531.448-2.128a3.384 3.384 0 0 1 1.296-1.408c.555-.331 1.21-.496 1.968-.496.746 0 1.397.165 1.952.496.565.331.997.8 1.296 1.408.31.597.464 1.307.464 2.128 0 .821-.155 1.536-.464 2.144a3.274 3.274 0 0 1-1.296 1.392c-.555.331-1.206.496-1.952.496Zm0-1.04c.725 0 1.306-.256 1.744-.768.437-.523.656-1.264.656-2.224 0-.971-.219-1.712-.656-2.224-.438-.512-1.019-.768-1.744-.768-.736 0-1.323.256-1.76.768-.427.512-.64 1.253-.64 2.224 0 .96.213 1.701.64 2.224.437.512 1.024.768 1.76.768Zm7.613.896-2.896-7.776h1.36l2.192 6.256 2.272-6.256h1.104l2.24 6.272 2.224-6.272h1.296L89.238 112h-1.232l-2.192-6.032L83.606 112h-1.248Zm18.795.144c-.779 0-1.451-.165-2.016-.496a3.455 3.455 0 0 1-1.312-1.424c-.299-.619-.448-1.339-.448-2.16 0-1.237.336-2.208 1.008-2.912.672-.715 1.594-1.072 2.768-1.072.48 0 .954.085 1.424.256.469.171.858.411 1.168.72l-.448.944a2.952 2.952 0 0 0-1.024-.656 2.907 2.907 0 0 0-1.04-.208c-.811 0-1.435.256-1.872.768-.438.501-.656 1.227-.656 2.176 0 .928.218 1.664.656 2.208.437.533 1.061.8 1.872.8.33 0 .677-.069 1.04-.208a2.861 2.861 0 0 0 1.024-.672l.448.944c-.31.309-.704.555-1.184.736-.47.171-.939.256-1.408.256Zm6.495 0a3.312 3.312 0 0 1-1.44-.304 2.608 2.608 0 0 1-.992-.864 2.125 2.125 0 0 1-.368-1.216c0-.565.144-1.013.432-1.344.299-.331.784-.565 1.456-.704.683-.149 1.611-.224 2.784-.224h.512v-.496c0-.661-.138-1.136-.416-1.424-.266-.299-.698-.448-1.296-.448-.469 0-.922.069-1.36.208a5.113 5.113 0 0 0-1.344.64l-.448-.944c.406-.288.896-.517 1.472-.688a6.005 6.005 0 0 1 1.68-.256c1.003 0 1.744.245 2.224.736.491.491.736 1.253.736 2.288V112h-1.216v-1.344a2.394 2.394 0 0 1-.944 1.088c-.416.267-.906.4-1.472.4Zm.208-.976c.64 0 1.163-.219 1.568-.656.406-.448.608-1.013.608-1.696v-.48h-.496c-.864 0-1.546.043-2.048.128-.49.075-.837.213-1.04.416-.192.192-.288.459-.288.8 0 .437.15.795.448 1.072.31.277.726.416 1.248.416Zm5.829.832v-7.776h1.264v1.328a2.524 2.524 0 0 1 1.088-1.104 3.37 3.37 0 0 1 1.584-.368c1.845 0 2.768 1.024 2.768 3.072V112h-1.296v-4.768c0-.725-.144-1.253-.432-1.584-.278-.341-.726-.512-1.344-.512-.715 0-1.286.224-1.712.672-.416.437-.624 1.024-.624 1.76V112h-1.296Zm13.379 0v-11.28h1.312V112h-1.312Zm-58.01 27.024a6.532 6.532 0 0 1-1.904-.272 4.716 4.716 0 0 1-1.568-.784l.432-.944c.48.341.955.587 1.424.736.48.149.998.224 1.552.224 1.536 0 2.304-.789 2.304-2.368v-1.376c-.224.491-.576.88-1.056 1.168-.469.277-1.008.416-1.616.416-.714 0-1.333-.165-1.856-.496a3.344 3.344 0 0 1-1.216-1.36c-.277-.587-.416-1.264-.416-2.032s.14-1.44.416-2.016a3.21 3.21 0 0 1 1.216-1.36c.523-.32 1.142-.48 1.856-.48.608 0 1.147.139 1.616.416.48.277.832.656 1.056 1.136v-1.408h1.264v7.216c0 1.195-.298 2.091-.896 2.688-.586.597-1.456.896-2.608.896Zm-.192-4.256c.747 0 1.34-.256 1.776-.768.438-.512.656-1.2.656-2.064 0-.864-.218-1.547-.656-2.048-.437-.512-1.029-.768-1.776-.768-.736 0-1.322.256-1.76.768-.437.501-.656 1.184-.656 2.048 0 .864.22 1.552.656 2.064.438.512 1.024.768 1.76.768ZM74.99 136v-7.776h1.264v1.392c.416-.939 1.27-1.456 2.56-1.552l.464-.048.096 1.12-.816.096c-.736.064-1.296.299-1.68.704-.384.395-.576.939-.576 1.632V136H74.99Zm8.873.144c-.757 0-1.413-.165-1.968-.496a3.409 3.409 0 0 1-1.296-1.392c-.299-.608-.448-1.323-.448-2.144 0-.821.15-1.531.448-2.128a3.384 3.384 0 0 1 1.296-1.408c.555-.331 1.21-.496 1.968-.496.747 0 1.397.165 1.952.496.565.331.997.8 1.296 1.408.31.597.464 1.307.464 2.128 0 .821-.155 1.536-.464 2.144a3.274 3.274 0 0 1-1.296 1.392c-.555.331-1.205.496-1.952.496Zm0-1.04c.725 0 1.307-.256 1.744-.768.437-.523.656-1.264.656-2.224 0-.971-.219-1.712-.656-2.224-.437-.512-1.019-.768-1.744-.768-.736 0-1.323.256-1.76.768-.427.512-.64 1.253-.64 2.224 0 .96.213 1.701.64 2.224.437.512 1.024.768 1.76.768Zm7.613.896-2.896-7.776h1.36l2.192 6.256 2.272-6.256h1.104l2.24 6.272 2.224-6.272h1.296L98.355 136h-1.232l-2.192-6.032L92.723 136h-1.248Zm15.531 0v-7.776h1.264v1.312c.234-.469.56-.827.976-1.072.416-.256.901-.384 1.456-.384 1.216 0 1.994.528 2.336 1.584a2.645 2.645 0 0 1 1.04-1.152c.458-.288.986-.432 1.584-.432 1.728 0 2.592 1.024 2.592 3.072V136h-1.296v-4.784c0-.715-.128-1.237-.384-1.568-.246-.341-.656-.512-1.232-.512-.63 0-1.131.224-1.504.672-.374.448-.56 1.045-.56 1.792v4.4h-1.296v-4.784c0-.715-.128-1.237-.384-1.568-.246-.341-.656-.512-1.232-.512-.64 0-1.147.224-1.52.672-.363.448-.544 1.045-.544 1.792v4.4h-1.296Zm14.489 2.88 1.328-3.008-3.28-7.648h1.408l2.576 6.304 2.592-6.304h1.36l-4.624 10.656h-1.36Zm-53.494 11.408v-1.456h1.6v1.456h-1.6Zm.16 9.712v-7.776h1.296V160h-1.296Zm3.72 0v-7.776h1.263v1.328a2.527 2.527 0 0 1 1.088-1.104c.47-.245.997-.368 1.584-.368 1.845 0 2.768 1.024 2.768 3.072V160h-1.296v-4.768c0-.725-.144-1.253-.432-1.584-.277-.341-.725-.512-1.344-.512-.715 0-1.285.224-1.712.672-.416.437-.624 1.024-.624 1.76V160H71.88Zm12.389.144c-.779 0-1.45-.165-2.016-.496a3.454 3.454 0 0 1-1.312-1.424c-.299-.619-.448-1.339-.448-2.16 0-1.237.336-2.208 1.008-2.912.672-.715 1.595-1.072 2.768-1.072.48 0 .955.085 1.424.256.47.171.858.411 1.168.72l-.448.944a2.943 2.943 0 0 0-1.024-.656 2.903 2.903 0 0 0-1.04-.208c-.81 0-1.435.256-1.872.768-.438.501-.656 1.227-.656 2.176 0 .928.218 1.664.656 2.208.437.533 1.061.8 1.872.8.33 0 .677-.069 1.04-.208a2.853 2.853 0 0 0 1.024-.672l.448.944a3.29 3.29 0 0 1-1.184.736c-.47.171-.939.256-1.408.256Zm7.186 0c-.758 0-1.413-.165-1.968-.496a3.409 3.409 0 0 1-1.296-1.392c-.299-.608-.448-1.323-.448-2.144 0-.821.15-1.531.448-2.128a3.384 3.384 0 0 1 1.296-1.408c.555-.331 1.21-.496 1.968-.496.746 0 1.397.165 1.952.496.565.331.997.8 1.296 1.408.31.597.464 1.307.464 2.128 0 .821-.155 1.536-.464 2.144a3.274 3.274 0 0 1-1.296 1.392c-.555.331-1.206.496-1.952.496Zm0-1.04c.725 0 1.306-.256 1.744-.768.437-.523.656-1.264.656-2.224 0-.971-.219-1.712-.656-2.224-.438-.512-1.019-.768-1.744-.768-.736 0-1.323.256-1.76.768-.427.512-.64 1.253-.64 2.224 0 .96.213 1.701.64 2.224.437.512 1.024.768 1.76.768Zm5.69.896v-7.776h1.264v1.312c.235-.469.56-.827.976-1.072.416-.256.902-.384 1.456-.384 1.216 0 1.995.528 2.336 1.584a2.657 2.657 0 0 1 1.04-1.152c.459-.288.987-.432 1.584-.432 1.728 0 2.592 1.024 2.592 3.072V160h-1.296v-4.784c0-.715-.128-1.237-.384-1.568-.245-.341-.656-.512-1.232-.512-.629 0-1.13.224-1.504.672-.373.448-.56 1.045-.56 1.792v4.4h-1.296v-4.784c0-.715-.128-1.237-.384-1.568-.245-.341-.656-.512-1.232-.512-.64 0-1.146.224-1.52.672-.362.448-.544 1.045-.544 1.792v4.4h-1.296Zm17.176.144c-1.227 0-2.198-.357-2.912-1.072-.715-.725-1.072-1.707-1.072-2.944 0-.8.16-1.504.48-2.112.32-.619.757-1.093 1.312-1.424.565-.341 1.216-.512 1.952-.512 1.056 0 1.882.341 2.48 1.024.597.672.896 1.6.896 2.784v.496h-5.856c.042.885.298 1.563.768 2.032.469.459 1.12.688 1.952.688.469 0 .917-.069 1.344-.208a3.77 3.77 0 0 0 1.216-.72l.448.912c-.352.331-.8.592-1.344.784a5.24 5.24 0 0 1-1.664.272Zm-.208-7.104c-.736 0-1.318.229-1.744.688-.427.459-.678 1.061-.752 1.808h4.72c-.032-.789-.24-1.403-.624-1.84-.374-.437-.907-.656-1.6-.656Zm6.759 4.016v-.464c0-.544.101-1.051.304-1.52.203-.48.56-1.019 1.072-1.616.405-.469.688-.869.848-1.2.16-.331.24-.683.24-1.056 0-.448-.16-.8-.48-1.056-.32-.267-.763-.4-1.328-.4-.587 0-1.131.107-1.632.32a4.782 4.782 0 0 0-1.424.96l-.48-1.024c.416-.427.944-.768 1.584-1.024.64-.267 1.312-.4 2.016-.4.917 0 1.659.235 2.224.704.565.459.848 1.067.848 1.824 0 .501-.112.971-.336 1.408-.213.437-.592.944-1.136 1.52-.501.533-.859 1.003-1.072 1.408-.203.395-.331.8-.384 1.216l-.032.4h-.832Zm-.4 2.944v-1.632h1.632V160h-1.632ZM468.931 112v-11.28h1.312V112h-1.312Zm3.918 0v-7.776h1.264v1.328a2.524 2.524 0 0 1 1.088-1.104 3.37 3.37 0 0 1 1.584-.368c1.845 0 2.768 1.024 2.768 3.072V112h-1.296v-4.768c0-.725-.144-1.253-.432-1.584-.278-.341-.726-.512-1.344-.512-.715 0-1.286.224-1.712.672-.416.437-.624 1.024-.624 1.76V112h-1.296Zm11.303 0-3.344-7.776h1.408l2.576 6.304 2.608-6.304h1.328l-3.36 7.776h-1.216Zm9.341.144c-1.226 0-2.197-.357-2.912-1.072-.714-.725-1.072-1.707-1.072-2.944 0-.8.16-1.504.48-2.112a3.47 3.47 0 0 1 1.312-1.424c.566-.341 1.216-.512 1.952-.512 1.056 0 1.883.341 2.48 1.024.598.672.896 1.6.896 2.784v.496h-5.856c.043.885.299 1.563.768 2.032.47.459 1.12.688 1.952.688.47 0 .918-.069 1.344-.208a3.76 3.76 0 0 0 1.216-.72l.448.912c-.352.331-.8.592-1.344.784a5.236 5.236 0 0 1-1.664.272Zm-.208-7.104c-.736 0-1.317.229-1.744.688-.426.459-.677 1.061-.752 1.808h4.72c-.032-.789-.24-1.403-.624-1.84-.373-.437-.906-.656-1.6-.656Zm7.844 7.104a5.73 5.73 0 0 1-1.728-.256c-.544-.171-.992-.411-1.344-.72l.416-.912c.384.309.805.539 1.264.688.469.139.944.208 1.424.208.608 0 1.067-.112 1.376-.336.309-.224.464-.528.464-.912 0-.299-.101-.533-.304-.704-.203-.181-.523-.32-.96-.416l-1.456-.32c-1.323-.288-1.984-.971-1.984-2.048 0-.704.277-1.269.832-1.696.565-.427 1.301-.64 2.208-.64.533 0 1.04.085 1.52.256a3 3 0 0 1 1.216.72l-.432.912a3.12 3.12 0 0 0-1.088-.656 3.29 3.29 0 0 0-1.216-.24c-.597 0-1.051.117-1.36.352a1.11 1.11 0 0 0-.464.928c0 .597.395.981 1.184 1.152l1.456.304c.683.149 1.2.389 1.552.72.352.32.528.757.528 1.312 0 .715-.283 1.28-.848 1.696-.565.405-1.317.608-2.256.608Zm8.121 0c-.917 0-1.605-.24-2.064-.72-.459-.491-.688-1.195-.688-2.112v-4.08h-1.52v-1.008h1.52v-2.384h1.296v2.384h2.464v1.008h-2.464v3.952c0 .608.128 1.072.384 1.392.256.309.672.464 1.248.464.171 0 .341-.021.512-.064.171-.043.325-.085.464-.128l.224.992a2.615 2.615 0 0 1-.608.208 3.294 3.294 0 0 1-.768.096Zm6.999-.144v-6.768h-1.536v-1.008h1.536v-.272c0-1.035.256-1.819.768-2.352.523-.533 1.323-.832 2.4-.896l.624-.032.112.992-.736.048c-.661.053-1.141.251-1.44.592-.288.341-.432.837-.432 1.488v.432h2.24v1.008h-2.24V112h-1.296Zm7.926.144c-.758 0-1.414-.165-1.968-.496a3.405 3.405 0 0 1-1.296-1.392c-.299-.608-.448-1.323-.448-2.144 0-.821.149-1.531.448-2.128a3.38 3.38 0 0 1 1.296-1.408c.554-.331 1.21-.496 1.968-.496.746 0 1.397.165 1.952.496.565.331.997.8 1.296 1.408.309.597.464 1.307.464 2.128 0 .821-.155 1.536-.464 2.144a3.278 3.278 0 0 1-1.296 1.392c-.555.331-1.206.496-1.952.496Zm0-1.04c.725 0 1.306-.256 1.744-.768.437-.523.656-1.264.656-2.224 0-.971-.219-1.712-.656-2.224-.438-.512-1.019-.768-1.744-.768-.736 0-1.323.256-1.76.768-.427.512-.64 1.253-.64 2.224 0 .96.213 1.701.64 2.224.437.512 1.024.768 1.76.768Zm5.658.896v-7.776h1.264v1.392c.416-.939 1.27-1.456 2.56-1.552l.464-.048.096 1.12-.816.096c-.736.064-1.296.299-1.68.704-.384.395-.576.939-.576 1.632V112h-1.312Zm-57.661 24.144c-.917 0-1.605-.24-2.064-.72-.459-.491-.688-1.195-.688-2.112v-4.08h-1.52v-1.008h1.52v-2.384h1.296v2.384h2.464v1.008h-2.464v3.952c0 .608.128 1.072.384 1.392.256.309.672.464 1.248.464.171 0 .341-.021.512-.064.171-.043.325-.085.464-.128l.224.992a2.615 2.615 0 0 1-.608.208 3.294 3.294 0 0 1-.768.096Zm2.474-.144v-11.28h1.296v4.784a2.5 2.5 0 0 1 1.072-1.056 3.336 3.336 0 0 1 1.568-.368c1.845 0 2.768 1.024 2.768 3.072V136h-1.296v-4.768c0-.725-.144-1.253-.432-1.584-.278-.341-.726-.512-1.344-.512-.715 0-1.286.224-1.712.672-.416.437-.624 1.024-.624 1.76V136h-1.296Zm12.597.144c-1.226 0-2.197-.357-2.912-1.072-.714-.725-1.072-1.707-1.072-2.944 0-.8.16-1.504.48-2.112a3.47 3.47 0 0 1 1.312-1.424c.566-.341 1.216-.512 1.952-.512 1.056 0 1.883.341 2.48 1.024.598.672.896 1.6.896 2.784v.496h-5.856c.043.885.299 1.563.768 2.032.47.459 1.12.688 1.952.688.47 0 .918-.069 1.344-.208a3.76 3.76 0 0 0 1.216-.72l.448.912c-.352.331-.8.592-1.344.784a5.236 5.236 0 0 1-1.664.272Zm-.208-7.104c-.736 0-1.317.229-1.744.688-.426.459-.677 1.061-.752 1.808h4.72c-.032-.789-.24-1.403-.624-1.84-.373-.437-.906-.656-1.6-.656Zm9.745 6.96v-6.768h-1.536v-1.008h1.536v-.272c0-1.035.256-1.819.768-2.352.523-.533 1.323-.832 2.4-.896l.624-.032.112.992-.736.048c-.661.053-1.141.251-1.44.592-.288.341-.432.837-.432 1.488v.432h2.24v1.008h-2.24V136h-1.296Zm7.665.144c-1.867 0-2.8-1.029-2.8-3.088v-4.832h1.296v4.816c0 .693.138 1.205.416 1.536.288.331.736.496 1.344.496.661 0 1.2-.219 1.616-.656.416-.448.624-1.04.624-1.776v-4.416h1.296V136h-1.264v-1.312a2.63 2.63 0 0 1-1.04 1.088 2.996 2.996 0 0 1-1.488.368Zm9.336 0c-.917 0-1.605-.24-2.064-.72-.458-.491-.688-1.195-.688-2.112v-4.08h-1.52v-1.008h1.52v-2.384h1.296v2.384h2.464v1.008h-2.464v3.952c0 .608.128 1.072.384 1.392.256.309.672.464 1.248.464.171 0 .342-.021.512-.064a8.78 8.78 0 0 0 .464-.128l.224.992a2.598 2.598 0 0 1-.608.208 3.281 3.281 0 0 1-.768.096Zm5.226 0c-1.867 0-2.8-1.029-2.8-3.088v-4.832h1.296v4.816c0 .693.139 1.205.416 1.536.288.331.736.496 1.344.496.661 0 1.2-.219 1.616-.656.416-.448.624-1.04.624-1.776v-4.416h1.296V136h-1.264v-1.312a2.624 2.624 0 0 1-1.04 1.088 2.99 2.99 0 0 1-1.488.368Zm6.217-.144v-7.776h1.264v1.392c.416-.939 1.269-1.456 2.56-1.552l.464-.048.096 1.12-.816.096c-.736.064-1.296.299-1.68.704-.384.395-.576.939-.576 1.632V136h-1.312Zm9.144.144c-1.226 0-2.197-.357-2.912-1.072-.714-.725-1.072-1.707-1.072-2.944 0-.8.16-1.504.48-2.112a3.47 3.47 0 0 1 1.312-1.424c.566-.341 1.216-.512 1.952-.512 1.056 0 1.883.341 2.48 1.024.598.672.896 1.6.896 2.784v.496h-5.856c.043.885.299 1.563.768 2.032.47.459 1.12.688 1.952.688.47 0 .918-.069 1.344-.208a3.76 3.76 0 0 0 1.216-.72l.448.912c-.352.331-.8.592-1.344.784a5.236 5.236 0 0 1-1.664.272Zm-.208-7.104c-.736 0-1.317.229-1.744.688-.426.459-.677 1.061-.752 1.808h4.72c-.032-.789-.24-1.403-.624-1.84-.373-.437-.906-.656-1.6-.656ZM486.489 160v-7.776h1.264v1.328a2.53 2.53 0 0 1 1.088-1.104c.47-.245.998-.368 1.584-.368 1.846 0 2.768 1.024 2.768 3.072V160h-1.296v-4.768c0-.725-.144-1.253-.432-1.584-.277-.341-.725-.512-1.344-.512-.714 0-1.285.224-1.712.672-.416.437-.624 1.024-.624 1.76V160h-1.296Zm12.598.144c-1.226 0-2.197-.357-2.912-1.072-.714-.725-1.072-1.707-1.072-2.944 0-.8.16-1.504.48-2.112a3.47 3.47 0 0 1 1.312-1.424c.566-.341 1.216-.512 1.952-.512 1.056 0 1.883.341 2.48 1.024.598.672.896 1.6.896 2.784v.496h-5.856c.043.885.299 1.563.768 2.032.47.459 1.12.688 1.952.688.47 0 .918-.069 1.344-.208a3.76 3.76 0 0 0 1.216-.72l.448.912c-.352.331-.8.592-1.344.784a5.236 5.236 0 0 1-1.664.272Zm-.208-7.104c-.736 0-1.317.229-1.744.688-.426.459-.677 1.061-.752 1.808h4.72c-.032-.789-.24-1.403-.624-1.84-.373-.437-.906-.656-1.6-.656Zm8.724 7.104c-1.227 0-2.198-.357-2.912-1.072-.715-.725-1.072-1.707-1.072-2.944 0-.8.16-1.504.48-2.112.32-.619.757-1.093 1.312-1.424.565-.341 1.216-.512 1.952-.512 1.056 0 1.882.341 2.48 1.024.597.672.896 1.6.896 2.784v.496h-5.856c.042.885.298 1.563.768 2.032.469.459 1.12.688 1.952.688.469 0 .917-.069 1.344-.208a3.77 3.77 0 0 0 1.216-.72l.448.912c-.352.331-.8.592-1.344.784a5.24 5.24 0 0 1-1.664.272Zm-.208-7.104c-.736 0-1.318.229-1.744.688-.427.459-.678 1.061-.752 1.808h4.72c-.032-.789-.24-1.403-.624-1.84-.374-.437-.907-.656-1.6-.656Zm8.179 7.104c-.693 0-1.301-.165-1.824-.496-.512-.331-.912-.795-1.2-1.392-.277-.608-.416-1.323-.416-2.144 0-.832.139-1.547.416-2.144.288-.608.688-1.072 1.2-1.392.523-.331 1.131-.496 1.824-.496.608 0 1.142.133 1.6.4.47.267.816.635 1.04 1.104v-4.864h1.296V160h-1.264v-1.424c-.224.491-.57.875-1.04 1.152-.469.277-1.013.416-1.632.416Zm.272-1.04c.726 0 1.307-.256 1.744-.768.438-.523.656-1.264.656-2.224 0-.971-.218-1.712-.656-2.224-.437-.512-1.018-.768-1.744-.768-.736 0-1.322.256-1.76.768-.426.512-.64 1.253-.64 2.224 0 .96.214 1.701.64 2.224.438.512 1.024.768 1.76.768ZM466.517 328v-11.28h7.12v1.104h-5.84v3.904h5.504v1.104h-5.504v4.064h5.84V328h-7.12Zm8.16 0 3.232-4.016-3.04-3.76h1.536l2.256 2.864 2.272-2.864h1.52l-3.04 3.76 3.232 4.016h-1.536l-2.464-3.088-2.432 3.088h-1.536Zm9.398 2.88v-10.656h1.264v1.392c.235-.48.582-.853 1.04-1.12.47-.277 1.014-.416 1.632-.416.694 0 1.296.165 1.808.496.523.32.923.784 1.2 1.392.288.597.432 1.312.432 2.144 0 .821-.144 1.536-.432 2.144a3.194 3.194 0 0 1-1.2 1.392c-.512.331-1.114.496-1.808.496-.597 0-1.13-.133-1.6-.4a2.48 2.48 0 0 1-1.04-1.104v4.24h-1.296Zm3.664-3.776c.726 0 1.307-.256 1.744-.768.438-.523.656-1.264.656-2.224 0-.971-.218-1.712-.656-2.224-.437-.512-1.018-.768-1.744-.768-.725 0-1.306.256-1.744.768-.437.512-.656 1.253-.656 2.224 0 .96.219 1.701.656 2.224.438.512 1.019.768 1.744.768Zm9.169 1.04c-1.227 0-2.198-.357-2.912-1.072-.715-.725-1.072-1.707-1.072-2.944 0-.8.16-1.504.48-2.112.32-.619.757-1.093 1.312-1.424.565-.341 1.216-.512 1.952-.512 1.056 0 1.882.341 2.48 1.024.597.672.896 1.6.896 2.784v.496h-5.856c.042.885.298 1.563.768 2.032.469.459 1.12.688 1.952.688.469 0 .917-.069 1.344-.208a3.77 3.77 0 0 0 1.216-.72l.448.912c-.352.331-.8.592-1.344.784a5.24 5.24 0 0 1-1.664.272Zm-.208-7.104c-.736 0-1.318.229-1.744.688-.427.459-.678 1.061-.752 1.808h4.72c-.032-.789-.24-1.403-.624-1.84-.374-.437-.907-.656-1.6-.656Zm8.515 7.104c-.779 0-1.451-.165-2.016-.496a3.454 3.454 0 0 1-1.312-1.424c-.299-.619-.448-1.339-.448-2.16 0-1.237.336-2.208 1.008-2.912.672-.715 1.595-1.072 2.768-1.072.48 0 .955.085 1.424.256a3.15 3.15 0 0 1 1.168.72l-.448.944a2.943 2.943 0 0 0-1.024-.656 2.903 2.903 0 0 0-1.04-.208c-.811 0-1.435.256-1.872.768-.437.501-.656 1.227-.656 2.176 0 .928.219 1.664.656 2.208.437.533 1.061.8 1.872.8.331 0 .677-.069 1.04-.208a2.853 2.853 0 0 0 1.024-.672l.448.944a3.288 3.288 0 0 1-1.184.736 4.088 4.088 0 0 1-1.408.256Zm7.23 0c-.917 0-1.605-.24-2.064-.72-.458-.491-.688-1.195-.688-2.112v-4.08h-1.52v-1.008h1.52v-2.384h1.296v2.384h2.464v1.008h-2.464v3.952c0 .608.128 1.072.384 1.392.256.309.672.464 1.248.464.171 0 .342-.021.512-.064a8.78 8.78 0 0 0 .464-.128l.224.992a2.598 2.598 0 0 1-.608.208 3.281 3.281 0 0 1-.768.096Zm4.922 0a3.312 3.312 0 0 1-1.44-.304 2.6 2.6 0 0 1-.992-.864 2.125 2.125 0 0 1-.368-1.216c0-.565.144-1.013.432-1.344.299-.331.784-.565 1.456-.704.683-.149 1.611-.224 2.784-.224h.512v-.496c0-.661-.139-1.136-.416-1.424-.267-.299-.699-.448-1.296-.448-.469 0-.923.069-1.36.208a5.113 5.113 0 0 0-1.344.64l-.448-.944c.405-.288.896-.517 1.472-.688a6.005 6.005 0 0 1 1.68-.256c1.003 0 1.744.245 2.224.736.491.491.736 1.253.736 2.288V328h-1.216v-1.344a2.4 2.4 0 0 1-.944 1.088c-.416.267-.907.4-1.472.4Zm.208-.976c.64 0 1.163-.219 1.568-.656.405-.448.608-1.013.608-1.696v-.48h-.496c-.864 0-1.547.043-2.048.128-.491.075-.837.213-1.04.416-.192.192-.288.459-.288.8 0 .437.149.795.448 1.072.309.277.725.416 1.248.416Zm5.829.832v-7.776h1.264v1.328a2.524 2.524 0 0 1 1.088-1.104 3.37 3.37 0 0 1 1.584-.368c1.845 0 2.768 1.024 2.768 3.072V328h-1.296v-4.768c0-.725-.144-1.253-.432-1.584-.278-.341-.726-.512-1.344-.512-.715 0-1.286.224-1.712.672-.416.437-.624 1.024-.624 1.76V328h-1.296Zm12.213.144c-.917 0-1.605-.24-2.064-.72-.458-.491-.688-1.195-.688-2.112v-4.08h-1.52v-1.008h1.52v-2.384h1.296v2.384h2.464v1.008h-2.464v3.952c0 .608.128 1.072.384 1.392.256.309.672.464 1.248.464.171 0 .342-.021.512-.064a8.78 8.78 0 0 0 .464-.128l.224.992a2.598 2.598 0 0 1-.608.208 3.281 3.281 0 0 1-.768.096ZM470.056 400v-11.28h1.312v4.992h6.768v-4.992h1.312V400h-1.312v-5.152h-6.768V400h-1.312Zm15.228.144c-.757 0-1.413-.165-1.968-.496a3.405 3.405 0 0 1-1.296-1.392c-.299-.608-.448-1.323-.448-2.144 0-.821.149-1.531.448-2.128a3.38 3.38 0 0 1 1.296-1.408c.555-.331 1.211-.496 1.968-.496.747 0 1.397.165 1.952.496.565.331.997.8 1.296 1.408.309.597.464 1.307.464 2.128 0 .821-.155 1.536-.464 2.144a3.278 3.278 0 0 1-1.296 1.392c-.555.331-1.205.496-1.952.496Zm0-1.04c.725 0 1.307-.256 1.744-.768.437-.523.656-1.264.656-2.224 0-.971-.219-1.712-.656-2.224-.437-.512-1.019-.768-1.744-.768-.736 0-1.323.256-1.76.768-.427.512-.64 1.253-.64 2.224 0 .96.213 1.701.64 2.224.437.512 1.024.768 1.76.768Zm5.659 3.776v-10.656h1.264v1.392c.234-.48.581-.853 1.04-1.12.469-.277 1.013-.416 1.632-.416.693 0 1.296.165 1.808.496.522.32.922.784 1.2 1.392.288.597.432 1.312.432 2.144 0 .821-.144 1.536-.432 2.144a3.207 3.207 0 0 1-1.2 1.392c-.512.331-1.115.496-1.808.496-.598 0-1.131-.133-1.6-.4a2.474 2.474 0 0 1-1.04-1.104v4.24h-1.296Zm3.664-3.776c.725 0 1.306-.256 1.744-.768.437-.523.656-1.264.656-2.224 0-.971-.219-1.712-.656-2.224-.438-.512-1.019-.768-1.744-.768-.726 0-1.307.256-1.744.768-.438.512-.656 1.253-.656 2.224 0 .96.218 1.701.656 2.224.437.512 1.018.768 1.744.768Zm9.168 1.04c-1.227 0-2.198-.357-2.912-1.072-.715-.725-1.072-1.707-1.072-2.944 0-.8.16-1.504.48-2.112.32-.619.757-1.093 1.312-1.424.565-.341 1.216-.512 1.952-.512 1.056 0 1.882.341 2.48 1.024.597.672.896 1.6.896 2.784v.496h-5.856c.042.885.298 1.563.768 2.032.469.459 1.12.688 1.952.688.469 0 .917-.069 1.344-.208a3.77 3.77 0 0 0 1.216-.72l.448.912c-.352.331-.8.592-1.344.784a5.24 5.24 0 0 1-1.664.272Zm-.208-7.104c-.736 0-1.318.229-1.744.688-.427.459-.678 1.061-.752 1.808h4.72c-.032-.789-.24-1.403-.624-1.84-.374-.437-.907-.656-1.6-.656Zm5.635 6.96v-6.768h-1.536v-1.008h1.536v-.272c0-1.035.256-1.819.768-2.352.523-.533 1.323-.832 2.4-.896l.624-.032.112.992-.736.048c-.661.053-1.141.251-1.44.592-.288.341-.432.837-.432 1.488v.432h2.24v1.008h-2.24V400h-1.296Zm7.664.144c-1.866 0-2.8-1.029-2.8-3.088v-4.832h1.296v4.816c0 .693.139 1.205.416 1.536.288.331.736.496 1.344.496.662 0 1.2-.219 1.616-.656.416-.448.624-1.04.624-1.776v-4.416h1.296V400h-1.264v-1.312a2.624 2.624 0 0 1-1.04 1.088 2.99 2.99 0 0 1-1.488.368Zm8.601 0c-.789 0-1.386-.229-1.792-.688-.394-.469-.592-1.147-.592-2.032v-8.704h1.296v8.608c0 1.141.454 1.712 1.36 1.712a2.5 2.5 0 0 0 .72-.096l-.032 1.088c-.33.075-.65.112-.96.112Zm4.735 0c-.79 0-1.387-.229-1.792-.688-.395-.469-.592-1.147-.592-2.032v-8.704h1.296v8.608c0 1.141.453 1.712 1.36 1.712.266 0 .506-.032.72-.096l-.032 1.088a4.34 4.34 0 0 1-.96.112ZM640.085 327l4.976-11.28h1.12l4.976 11.28h-1.36l-1.248-2.88h-5.872l-1.232 2.88h-1.36Zm5.52-9.744-2.448 5.76h4.928l-2.448-5.76h-.032Zm7.049 9.744v-7.776h1.264v1.328a2.524 2.524 0 0 1 1.088-1.104 3.37 3.37 0 0 1 1.584-.368c1.845 0 2.768 1.024 2.768 3.072V327h-1.296v-4.768c0-.725-.144-1.253-.432-1.584-.278-.341-.726-.512-1.344-.512-.715 0-1.286.224-1.712.672-.416.437-.624 1.024-.624 1.76V327h-1.296Zm8.101 0 3.232-4.016-3.04-3.76h1.536l2.256 2.864 2.272-2.864h1.52l-3.04 3.76 3.232 4.016h-1.536l-2.464-3.088-2.432 3.088h-1.536Zm9.238-9.712v-1.456h1.601v1.456h-1.601Zm.161 9.712v-7.776h1.296V327h-1.296Zm6.95.144c-.757 0-1.413-.165-1.968-.496a3.418 3.418 0 0 1-1.296-1.392c-.298-.608-.448-1.323-.448-2.144 0-.821.15-1.531.448-2.128a3.393 3.393 0 0 1 1.296-1.408c.555-.331 1.211-.496 1.968-.496.747 0 1.398.165 1.952.496.566.331.998.8 1.296 1.408.31.597.464 1.307.464 2.128 0 .821-.154 1.536-.464 2.144a3.266 3.266 0 0 1-1.296 1.392c-.554.331-1.205.496-1.952.496Zm0-1.04c.726 0 1.307-.256 1.744-.768.438-.523.656-1.264.656-2.224 0-.971-.218-1.712-.656-2.224-.437-.512-1.018-.768-1.744-.768-.736 0-1.322.256-1.76.768-.426.512-.64 1.253-.64 2.224 0 .96.214 1.701.64 2.224.438.512 1.024.768 1.76.768Zm8.411 1.04c-1.867 0-2.8-1.029-2.8-3.088v-4.832h1.296v4.816c0 .693.139 1.205.416 1.536.288.331.736.496 1.344.496.661 0 1.2-.219 1.616-.656.416-.448.624-1.04.624-1.776v-4.416h1.296V327h-1.264v-1.312a2.624 2.624 0 0 1-1.04 1.088 2.99 2.99 0 0 1-1.488.368Zm8.841 0a5.73 5.73 0 0 1-1.728-.256c-.544-.171-.992-.411-1.344-.72l.416-.912c.384.309.805.539 1.264.688.469.139.944.208 1.424.208.608 0 1.066-.112 1.376-.336.309-.224.464-.528.464-.912 0-.299-.102-.533-.304-.704-.203-.181-.523-.32-.96-.416l-1.456-.32c-1.323-.288-1.984-.971-1.984-2.048 0-.704.277-1.269.832-1.696.565-.427 1.301-.64 2.208-.64.533 0 1.04.085 1.52.256.49.16.896.4 1.216.72l-.432.912a3.128 3.128 0 0 0-1.088-.656 3.295 3.295 0 0 0-1.216-.24c-.598 0-1.051.117-1.36.352-.31.235-.464.544-.464.928 0 .597.394.981 1.184 1.152l1.456.304c.682.149 1.2.389 1.552.72.352.32.528.757.528 1.312 0 .715-.283 1.28-.848 1.696-.566.405-1.318.608-2.256.608ZM647.439 399v-11.28h7.12v1.104h-5.84v3.904h5.504v1.104h-5.504v4.064h5.84V399h-7.12Zm11.536.144c-.789 0-1.387-.229-1.792-.688-.395-.469-.592-1.147-.592-2.032v-8.704h1.296v8.608c0 1.141.453 1.712 1.36 1.712a2.5 2.5 0 0 0 .72-.096l-.032 1.088a4.34 4.34 0 0 1-.96.112Zm4.798 0a3.312 3.312 0 0 1-1.44-.304 2.608 2.608 0 0 1-.992-.864 2.125 2.125 0 0 1-.368-1.216c0-.565.144-1.013.432-1.344.299-.331.784-.565 1.456-.704.683-.149 1.611-.224 2.784-.224h.512v-.496c0-.661-.138-1.136-.416-1.424-.266-.299-.698-.448-1.296-.448-.469 0-.922.069-1.36.208a5.113 5.113 0 0 0-1.344.64l-.448-.944c.406-.288.896-.517 1.472-.688a6.005 6.005 0 0 1 1.68-.256c1.003 0 1.744.245 2.224.736.491.491.736 1.253.736 2.288V399h-1.216v-1.344a2.394 2.394 0 0 1-.944 1.088c-.416.267-.906.4-1.472.4Zm.208-.976c.64 0 1.163-.219 1.568-.656.406-.448.608-1.013.608-1.696v-.48h-.496c-.864 0-1.546.043-2.048.128-.49.075-.837.213-1.04.416-.192.192-.288.459-.288.8 0 .437.15.795.448 1.072.31.277.726.416 1.248.416Zm8.949.976c-.918 0-1.606-.24-2.064-.72-.459-.491-.688-1.195-.688-2.112v-4.08h-1.52v-1.008h1.52v-2.384h1.296v2.384h2.464v1.008h-2.464v3.952c0 .608.128 1.072.384 1.392.256.309.672.464 1.248.464.17 0 .341-.021.512-.064a9.35 9.35 0 0 0 .464-.128l.224.992a2.632 2.632 0 0 1-.608.208 3.294 3.294 0 0 1-.768.096Zm5.899 0c-1.226 0-2.197-.357-2.912-1.072-.714-.725-1.072-1.707-1.072-2.944 0-.8.16-1.504.48-2.112a3.47 3.47 0 0 1 1.312-1.424c.566-.341 1.216-.512 1.952-.512 1.056 0 1.883.341 2.48 1.024.598.672.896 1.6.896 2.784v.496h-5.856c.043.885.299 1.563.768 2.032.47.459 1.12.688 1.952.688.47 0 .918-.069 1.344-.208a3.76 3.76 0 0 0 1.216-.72l.448.912c-.352.331-.8.592-1.344.784a5.236 5.236 0 0 1-1.664.272Zm-.208-7.104c-.736 0-1.317.229-1.744.688-.426.459-.677 1.061-.752 1.808h4.72c-.032-.789-.24-1.403-.624-1.84-.373-.437-.906-.656-1.6-.656Zm8.18 7.104c-.693 0-1.301-.165-1.824-.496-.512-.331-.912-.795-1.2-1.392-.277-.608-.416-1.323-.416-2.144 0-.832.139-1.547.416-2.144.288-.608.688-1.072 1.2-1.392.523-.331 1.131-.496 1.824-.496.608 0 1.141.133 1.6.4a2.48 2.48 0 0 1 1.04 1.104v-4.864h1.296V399h-1.264v-1.424a2.53 2.53 0 0 1-1.04 1.152c-.469.277-1.013.416-1.632.416Zm.272-1.04c.725 0 1.307-.256 1.744-.768.437-.523.656-1.264.656-2.224 0-.971-.219-1.712-.656-2.224-.437-.512-1.019-.768-1.744-.768-.736 0-1.323.256-1.76.768-.427.512-.64 1.253-.64 2.224 0 .96.213 1.701.64 2.224.437.512 1.024.768 1.76.768ZM655.54 112.144c-.885 0-1.685-.112-2.4-.336a5.572 5.572 0 0 1-1.856-1.008l.464-1.056a5.985 5.985 0 0 0 1.712.928c.597.203 1.291.304 2.08.304.96 0 1.669-.176 2.128-.528.469-.363.704-.837.704-1.424 0-.469-.171-.843-.512-1.12-.331-.277-.891-.496-1.68-.656l-1.664-.336c-1.003-.213-1.755-.56-2.256-1.04-.491-.491-.736-1.141-.736-1.952 0-.672.171-1.259.512-1.76.352-.501.837-.891 1.456-1.168.619-.277 1.333-.416 2.144-.416.757 0 1.461.123 2.112.368.651.235 1.2.576 1.648 1.024l-.464 1.024c-.48-.437-.987-.752-1.52-.944-.533-.203-1.131-.304-1.792-.304-.843 0-1.515.197-2.016.592-.501.384-.752.896-.752 1.536 0 .512.155.917.464 1.216.32.299.837.517 1.552.656l1.664.352c1.077.224 1.872.565 2.384 1.024.523.448.784 1.061.784 1.84 0 .629-.171 1.184-.512 1.664-.331.48-.811.853-1.44 1.12-.619.267-1.355.4-2.208.4Zm8.468 0a3.306 3.306 0 0 1-1.44-.304 2.6 2.6 0 0 1-.992-.864 2.117 2.117 0 0 1-.368-1.216c0-.565.144-1.013.432-1.344.298-.331.784-.565 1.456-.704.682-.149 1.61-.224 2.784-.224h.512v-.496c0-.661-.139-1.136-.416-1.424-.267-.299-.699-.448-1.296-.448-.47 0-.923.069-1.36.208a5.083 5.083 0 0 0-1.344.64l-.448-.944c.405-.288.896-.517 1.472-.688a5.995 5.995 0 0 1 1.68-.256c1.002 0 1.744.245 2.224.736.49.491.736 1.253.736 2.288V112h-1.216v-1.344a2.406 2.406 0 0 1-.944 1.088c-.416.267-.907.4-1.472.4Zm.208-.976c.64 0 1.162-.219 1.568-.656.405-.448.608-1.013.608-1.696v-.48h-.496c-.864 0-1.547.043-2.048.128-.491.075-.838.213-1.04.416-.192.192-.288.459-.288.8 0 .437.149.795.448 1.072.309.277.725.416 1.248.416Zm8.038.832-3.344-7.776h1.408l2.576 6.304 2.608-6.304h1.328L673.47 112h-1.216Zm9.341.144c-1.227 0-2.197-.357-2.912-1.072-.715-.725-1.072-1.707-1.072-2.944 0-.8.16-1.504.48-2.112.32-.619.757-1.093 1.312-1.424.565-.341 1.216-.512 1.952-.512 1.056 0 1.883.341 2.48 1.024.597.672.896 1.6.896 2.784v.496h-5.856c.043.885.299 1.563.768 2.032.469.459 1.12.688 1.952.688.469 0 .917-.069 1.344-.208a3.76 3.76 0 0 0 1.216-.72l.448.912c-.352.331-.8.592-1.344.784a5.24 5.24 0 0 1-1.664.272Zm-.208-7.104c-.736 0-1.317.229-1.744.688-.427.459-.677 1.061-.752 1.808h4.72c-.032-.789-.24-1.403-.624-1.84-.373-.437-.907-.656-1.6-.656Zm-44.528 31.104a3.312 3.312 0 0 1-1.44-.304 2.608 2.608 0 0 1-.992-.864 2.125 2.125 0 0 1-.368-1.216c0-.565.144-1.013.432-1.344.299-.331.784-.565 1.456-.704.683-.149 1.611-.224 2.784-.224h.512v-.496c0-.661-.138-1.136-.416-1.424-.266-.299-.698-.448-1.296-.448-.469 0-.922.069-1.36.208a5.113 5.113 0 0 0-1.344.64l-.448-.944c.406-.288.896-.517 1.472-.688a6.005 6.005 0 0 1 1.68-.256c1.003 0 1.744.245 2.224.736.491.491.736 1.253.736 2.288V136h-1.216v-1.344a2.394 2.394 0 0 1-.944 1.088c-.416.267-.906.4-1.472.4Zm.208-.976c.64 0 1.163-.219 1.568-.656.406-.448.608-1.013.608-1.696v-.48h-.496c-.864 0-1.546.043-2.048.128-.49.075-.837.213-1.04.416-.192.192-.288.459-.288.8 0 .437.15.795.448 1.072.31.277.726.416 1.248.416Zm5.829.832v-7.776h1.264v1.328a2.524 2.524 0 0 1 1.088-1.104 3.37 3.37 0 0 1 1.584-.368c1.845 0 2.768 1.024 2.768 3.072V136h-1.296v-4.768c0-.725-.144-1.253-.432-1.584-.278-.341-.726-.512-1.344-.512-.715 0-1.286.224-1.712.672-.416.437-.624 1.024-.624 1.76V136h-1.296Zm12.053.144c-.693 0-1.301-.165-1.824-.496-.512-.331-.912-.795-1.2-1.392-.277-.608-.416-1.323-.416-2.144 0-.832.139-1.547.416-2.144.288-.608.688-1.072 1.2-1.392.523-.331 1.131-.496 1.824-.496.608 0 1.142.133 1.6.4.47.267.816.635 1.04 1.104v-4.864h1.296V136h-1.264v-1.424c-.224.491-.57.875-1.04 1.152-.469.277-1.013.416-1.632.416Zm.272-1.04c.726 0 1.307-.256 1.744-.768.438-.523.656-1.264.656-2.224 0-.971-.218-1.712-.656-2.224-.437-.512-1.018-.768-1.744-.768-.736 0-1.322.256-1.76.768-.426.512-.64 1.253-.64 2.224 0 .96.214 1.701.64 2.224.438.512 1.024.768 1.76.768Zm10.046-8.816v-1.456h1.6v1.456h-1.6Zm.16 9.712v-7.776h1.296V136h-1.296Zm3.719 0v-7.776h1.264v1.328a2.524 2.524 0 0 1 1.088-1.104 3.37 3.37 0 0 1 1.584-.368c1.845 0 2.768 1.024 2.768 3.072V136h-1.296v-4.768c0-.725-.144-1.253-.432-1.584-.278-.341-.726-.512-1.344-.512-.715 0-1.286.224-1.712.672-.416.437-.624 1.024-.624 1.76V136h-1.296Zm11.303 0-3.344-7.776h1.408l2.576 6.304 2.608-6.304h1.328l-3.36 7.776h-1.216Zm9.341.144c-1.226 0-2.197-.357-2.912-1.072-.714-.725-1.072-1.707-1.072-2.944 0-.8.16-1.504.48-2.112a3.47 3.47 0 0 1 1.312-1.424c.566-.341 1.216-.512 1.952-.512 1.056 0 1.883.341 2.48 1.024.598.672.896 1.6.896 2.784v.496h-5.856c.043.885.299 1.563.768 2.032.47.459 1.12.688 1.952.688.47 0 .918-.069 1.344-.208a3.76 3.76 0 0 0 1.216-.72l.448.912c-.352.331-.8.592-1.344.784a5.236 5.236 0 0 1-1.664.272Zm-.208-7.104c-.736 0-1.317.229-1.744.688-.426.459-.677 1.061-.752 1.808h4.72c-.032-.789-.24-1.403-.624-1.84-.373-.437-.906-.656-1.6-.656Zm7.844 7.104a5.73 5.73 0 0 1-1.728-.256c-.544-.171-.992-.411-1.344-.72l.416-.912c.384.309.805.539 1.264.688.469.139.944.208 1.424.208.608 0 1.067-.112 1.376-.336.309-.224.464-.528.464-.912 0-.299-.101-.533-.304-.704-.203-.181-.523-.32-.96-.416l-1.456-.32c-1.323-.288-1.984-.971-1.984-2.048 0-.704.277-1.269.832-1.696.565-.427 1.301-.64 2.208-.64.533 0 1.04.085 1.52.256a3 3 0 0 1 1.216.72l-.432.912a3.12 3.12 0 0 0-1.088-.656 3.29 3.29 0 0 0-1.216-.24c-.597 0-1.051.117-1.36.352a1.11 1.11 0 0 0-.464.928c0 .597.395.981 1.184 1.152l1.456.304c.683.149 1.2.389 1.552.72.352.32.528.757.528 1.312 0 .715-.283 1.28-.848 1.696-.565.405-1.317.608-2.256.608Zm8.121 0c-.917 0-1.605-.24-2.064-.72-.459-.491-.688-1.195-.688-2.112v-4.08h-1.52v-1.008h1.52v-2.384h1.296v2.384h2.464v1.008h-2.464v3.952c0 .608.128 1.072.384 1.392.256.309.672.464 1.248.464.171 0 .341-.021.512-.064.171-.043.325-.085.464-.128l.224.992a2.615 2.615 0 0 1-.608.208 3.294 3.294 0 0 1-.768.096Zm-60.077 14.144v-1.456h1.6v1.456h-1.6Zm.16 9.712v-7.776h1.296V160h-1.296Zm3.719 0v-7.776h1.264v1.328a2.524 2.524 0 0 1 1.088-1.104 3.37 3.37 0 0 1 1.584-.368c1.845 0 2.768 1.024 2.768 3.072V160h-1.296v-4.768c0-.725-.144-1.253-.432-1.584-.278-.341-.726-.512-1.344-.512-.715 0-1.286.224-1.712.672-.416.437-.624 1.024-.624 1.76V160h-1.296Zm12.39.144c-.779 0-1.451-.165-2.016-.496a3.447 3.447 0 0 1-1.312-1.424c-.299-.619-.448-1.339-.448-2.16 0-1.237.336-2.208 1.008-2.912.672-.715 1.594-1.072 2.768-1.072.48 0 .954.085 1.424.256.469.171.858.411 1.168.72l-.448.944a2.952 2.952 0 0 0-1.024-.656 2.907 2.907 0 0 0-1.04-.208c-.811 0-1.435.256-1.872.768-.438.501-.656 1.227-.656 2.176 0 .928.218 1.664.656 2.208.437.533 1.061.8 1.872.8.33 0 .677-.069 1.04-.208a2.861 2.861 0 0 0 1.024-.672l.448.944c-.31.309-.704.555-1.184.736-.47.171-.939.256-1.408.256Zm7.186 0c-.758 0-1.414-.165-1.968-.496a3.405 3.405 0 0 1-1.296-1.392c-.299-.608-.448-1.323-.448-2.144 0-.821.149-1.531.448-2.128a3.38 3.38 0 0 1 1.296-1.408c.554-.331 1.21-.496 1.968-.496.746 0 1.397.165 1.952.496.565.331.997.8 1.296 1.408.309.597.464 1.307.464 2.128 0 .821-.155 1.536-.464 2.144a3.278 3.278 0 0 1-1.296 1.392c-.555.331-1.206.496-1.952.496Zm0-1.04c.725 0 1.306-.256 1.744-.768.437-.523.656-1.264.656-2.224 0-.971-.219-1.712-.656-2.224-.438-.512-1.019-.768-1.744-.768-.736 0-1.323.256-1.76.768-.427.512-.64 1.253-.64 2.224 0 .96.213 1.701.64 2.224.437.512 1.024.768 1.76.768Zm5.69.896v-7.776h1.264v1.312c.235-.469.56-.827.976-1.072.416-.256.902-.384 1.456-.384 1.216 0 1.995.528 2.336 1.584a2.657 2.657 0 0 1 1.04-1.152c.459-.288.987-.432 1.584-.432 1.728 0 2.592 1.024 2.592 3.072V160h-1.296v-4.784c0-.715-.128-1.237-.384-1.568-.245-.341-.656-.512-1.232-.512-.629 0-1.13.224-1.504.672-.373.448-.56 1.045-.56 1.792v4.4h-1.296v-4.784c0-.715-.128-1.237-.384-1.568-.245-.341-.656-.512-1.232-.512-.64 0-1.146.224-1.52.672-.362.448-.544 1.045-.544 1.792v4.4h-1.296Zm17.175.144c-1.226 0-2.197-.357-2.912-1.072-.714-.725-1.072-1.707-1.072-2.944 0-.8.16-1.504.48-2.112a3.47 3.47 0 0 1 1.312-1.424c.566-.341 1.216-.512 1.952-.512 1.056 0 1.883.341 2.48 1.024.598.672.896 1.6.896 2.784v.496h-5.856c.043.885.299 1.563.768 2.032.47.459 1.12.688 1.952.688.47 0 .918-.069 1.344-.208a3.76 3.76 0 0 0 1.216-.72l.448.912c-.352.331-.8.592-1.344.784a5.236 5.236 0 0 1-1.664.272Zm-.208-7.104c-.736 0-1.317.229-1.744.688-.426.459-.677 1.061-.752 1.808h4.72c-.032-.789-.24-1.403-.624-1.84-.373-.437-.906-.656-1.6-.656ZM44.681 335v-11.28h1.024l6.8 9.072v-9.072h1.216V335h-.992l-6.816-9.104V335h-1.232Zm15.172.144c-1.227 0-2.197-.357-2.912-1.072-.715-.725-1.072-1.707-1.072-2.944 0-.8.16-1.504.48-2.112.32-.619.757-1.093 1.312-1.424.565-.341 1.216-.512 1.952-.512 1.056 0 1.883.341 2.48 1.024.597.672.896 1.6.896 2.784v.496h-5.856c.042.885.298 1.563.768 2.032.47.459 1.12.688 1.952.688.47 0 .917-.069 1.344-.208a3.762 3.762 0 0 0 1.216-.72l.448.912c-.352.331-.8.592-1.344.784a5.239 5.239 0 0 1-1.664.272Zm-.208-7.104c-.736 0-1.318.229-1.744.688-.427.459-.678 1.061-.752 1.808h4.72c-.032-.789-.24-1.403-.624-1.84-.373-.437-.907-.656-1.6-.656Zm8.723 7.104c-1.226 0-2.197-.357-2.912-1.072-.714-.725-1.072-1.707-1.072-2.944 0-.8.16-1.504.48-2.112.32-.619.758-1.093 1.312-1.424.566-.341 1.216-.512 1.952-.512 1.056 0 1.883.341 2.48 1.024.598.672.896 1.6.896 2.784v.496h-5.856c.043.885.3 1.563.768 2.032.47.459 1.12.688 1.952.688.47 0 .918-.069 1.344-.208a3.762 3.762 0 0 0 1.216-.72l.448.912c-.352.331-.8.592-1.344.784a5.238 5.238 0 0 1-1.664.272Zm-.208-7.104c-.736 0-1.317.229-1.744.688-.426.459-.677 1.061-.752 1.808h4.72c-.032-.789-.24-1.403-.624-1.84-.373-.437-.906-.656-1.6-.656Zm8.18 7.104c-.693 0-1.301-.165-1.824-.496-.512-.331-.912-.795-1.2-1.392-.277-.608-.416-1.323-.416-2.144 0-.832.139-1.547.416-2.144.288-.608.688-1.072 1.2-1.392.523-.331 1.13-.496 1.824-.496.608 0 1.141.133 1.6.4.47.267.816.635 1.04 1.104v-4.864h1.296V335h-1.264v-1.424c-.224.491-.57.875-1.04 1.152-.47.277-1.013.416-1.632.416Zm.272-1.04c.725 0 1.307-.256 1.744-.768.437-.523.656-1.264.656-2.224 0-.971-.219-1.712-.656-2.224-.437-.512-1.019-.768-1.744-.768-.736 0-1.323.256-1.76.768-.427.512-.64 1.253-.64 2.224 0 .96.213 1.701.64 2.224.437.512 1.024.768 1.76.768Zm13.326 1.04c-.918 0-1.606-.24-2.064-.72-.46-.491-.688-1.195-.688-2.112v-4.08h-1.52v-1.008h1.52v-2.384h1.296v2.384h2.464v1.008h-2.464v3.952c0 .608.128 1.072.384 1.392.256.309.672.464 1.248.464.17 0 .34-.021.512-.064.17-.043.325-.085.464-.128l.224.992a2.617 2.617 0 0 1-.608.208 3.29 3.29 0 0 1-.768.096Zm5.627 0c-.757 0-1.413-.165-1.968-.496a3.409 3.409 0 0 1-1.296-1.392c-.299-.608-.448-1.323-.448-2.144 0-.821.15-1.531.448-2.128a3.384 3.384 0 0 1 1.296-1.408c.555-.331 1.21-.496 1.968-.496.747 0 1.398.165 1.952.496.566.331.998.8 1.296 1.408.31.597.464 1.307.464 2.128 0 .821-.154 1.536-.464 2.144a3.274 3.274 0 0 1-1.296 1.392c-.554.331-1.205.496-1.952.496Zm0-1.04c.725 0 1.307-.256 1.744-.768.438-.523.656-1.264.656-2.224 0-.971-.219-1.712-.656-2.224-.437-.512-1.019-.768-1.744-.768-.736 0-1.322.256-1.76.768-.427.512-.64 1.253-.64 2.224 0 .96.213 1.701.64 2.224.438.512 1.024.768 1.76.768Zm9.608-8.816v-1.456h1.6v1.456h-1.6Zm.16 9.712v-7.776h1.296V335h-1.296Zm3.719 0v-7.776h1.264v1.328a2.53 2.53 0 0 1 1.088-1.104 3.37 3.37 0 0 1 1.584-.368c1.845 0 2.768 1.024 2.768 3.072V335h-1.296v-4.768c0-.725-.144-1.253-.432-1.584-.277-.341-.725-.512-1.344-.512-.715 0-1.285.224-1.712.672-.416.437-.624 1.024-.624 1.76V335h-1.296Zm11.304 0-3.344-7.776h1.408l2.576 6.304 2.608-6.304h1.328l-3.36 7.776h-1.216Zm9.341.144c-1.227 0-2.198-.357-2.912-1.072-.715-.725-1.072-1.707-1.072-2.944 0-.8.16-1.504.48-2.112.32-.619.757-1.093 1.312-1.424.565-.341 1.216-.512 1.952-.512 1.056 0 1.882.341 2.48 1.024.597.672.896 1.6.896 2.784v.496h-5.856c.042.885.298 1.563.768 2.032.469.459 1.12.688 1.952.688.469 0 .917-.069 1.344-.208a3.77 3.77 0 0 0 1.216-.72l.448.912c-.352.331-.8.592-1.344.784a5.24 5.24 0 0 1-1.664.272Zm-.208-7.104c-.736 0-1.318.229-1.744.688-.427.459-.678 1.061-.752 1.808h4.72c-.032-.789-.24-1.403-.624-1.84-.374-.437-.907-.656-1.6-.656Zm7.843 7.104a5.73 5.73 0 0 1-1.728-.256c-.544-.171-.992-.411-1.344-.72l.416-.912c.384.309.806.539 1.264.688.47.139.944.208 1.424.208.608 0 1.067-.112 1.376-.336.31-.224.464-.528.464-.912 0-.299-.101-.533-.304-.704-.202-.181-.522-.32-.96-.416l-1.456-.32c-1.322-.288-1.984-.971-1.984-2.048 0-.704.278-1.269.832-1.696.566-.427 1.302-.64 2.208-.64.534 0 1.04.085 1.52.256a3 3 0 0 1 1.216.72l-.432.912a3.12 3.12 0 0 0-1.088-.656c-.405-.16-.81-.24-1.216-.24-.597 0-1.05.117-1.36.352a1.11 1.11 0 0 0-.464.928c0 .597.395.981 1.184 1.152l1.456.304c.683.149 1.2.389 1.552.72.352.32.528.757.528 1.312 0 .715-.282 1.28-.848 1.696-.565.405-1.317.608-2.256.608Zm8.121 0c-.917 0-1.605-.24-2.064-.72-.458-.491-.688-1.195-.688-2.112v-4.08h-1.52v-1.008h1.52v-2.384h1.296v2.384h2.464v1.008h-2.464v3.952c0 .608.128 1.072.384 1.392.256.309.672.464 1.248.464.171 0 .342-.021.512-.064a8.78 8.78 0 0 0 .464-.128l.224.992a2.598 2.598 0 0 1-.608.208 3.281 3.281 0 0 1-.768.096ZM43.6 359v-7.776h1.264v1.312c.234-.469.56-.827.976-1.072.416-.256.9-.384 1.456-.384 1.216 0 1.994.528 2.336 1.584a2.65 2.65 0 0 1 1.04-1.152c.458-.288.986-.432 1.584-.432 1.728 0 2.592 1.024 2.592 3.072V359h-1.296v-4.784c0-.715-.128-1.237-.384-1.568-.246-.341-.656-.512-1.232-.512-.63 0-1.131.224-1.504.672-.374.448-.56 1.045-.56 1.792v4.4h-1.296v-4.784c0-.715-.128-1.237-.384-1.568-.246-.341-.656-.512-1.232-.512-.64 0-1.147.224-1.52.672-.363.448-.544 1.045-.544 1.792v4.4H43.6Zm14.489 2.88 1.328-3.008-3.28-7.648h1.408l2.576 6.304 2.592-6.304h1.36l-4.624 10.656h-1.36ZM69.553 359v-7.776h1.264v1.312c.234-.469.56-.827.976-1.072.416-.256.901-.384 1.456-.384 1.216 0 1.994.528 2.336 1.584a2.65 2.65 0 0 1 1.04-1.152c.458-.288.986-.432 1.584-.432 1.728 0 2.592 1.024 2.592 3.072V359h-1.296v-4.784c0-.715-.128-1.237-.384-1.568-.246-.341-.656-.512-1.232-.512-.63 0-1.131.224-1.504.672-.374.448-.56 1.045-.56 1.792v4.4h-1.296v-4.784c0-.715-.128-1.237-.384-1.568-.246-.341-.656-.512-1.232-.512-.64 0-1.147.224-1.52.672-.363.448-.544 1.045-.544 1.792v4.4h-1.296Zm16.903.144c-.758 0-1.413-.165-1.968-.496a3.409 3.409 0 0 1-1.296-1.392c-.299-.608-.448-1.323-.448-2.144 0-.821.15-1.531.448-2.128a3.384 3.384 0 0 1 1.296-1.408c.555-.331 1.21-.496 1.968-.496.746 0 1.397.165 1.952.496.565.331.997.8 1.296 1.408.31.597.464 1.307.464 2.128 0 .821-.155 1.536-.464 2.144a3.274 3.274 0 0 1-1.296 1.392c-.555.331-1.206.496-1.952.496Zm0-1.04c.725 0 1.306-.256 1.744-.768.437-.523.656-1.264.656-2.224 0-.971-.219-1.712-.656-2.224-.438-.512-1.019-.768-1.744-.768-.736 0-1.323.256-1.76.768-.427.512-.64 1.253-.64 2.224 0 .96.213 1.701.64 2.224.437.512 1.024.768 1.76.768Zm5.658.896v-7.776h1.264v1.328a2.528 2.528 0 0 1 1.088-1.104c.47-.245.998-.368 1.584-.368 1.846 0 2.768 1.024 2.768 3.072V359h-1.296v-4.768c0-.725-.144-1.253-.432-1.584-.277-.341-.725-.512-1.344-.512-.714 0-1.285.224-1.712.672-.416.437-.624 1.024-.624 1.76V359h-1.296Zm12.598.144c-1.226 0-2.197-.357-2.912-1.072-.714-.725-1.072-1.707-1.072-2.944 0-.8.16-1.504.48-2.112a3.47 3.47 0 0 1 1.312-1.424c.566-.341 1.216-.512 1.952-.512 1.056 0 1.883.341 2.48 1.024.598.672.896 1.6.896 2.784v.496h-5.856c.043.885.299 1.563.768 2.032.47.459 1.12.688 1.952.688.47 0 .918-.069 1.344-.208a3.76 3.76 0 0 0 1.216-.72l.448.912c-.352.331-.8.592-1.344.784a5.236 5.236 0 0 1-1.664.272Zm-.208-7.104c-.736 0-1.317.229-1.744.688-.426.459-.677 1.061-.752 1.808h4.72c-.032-.789-.24-1.403-.624-1.84-.373-.437-.906-.656-1.6-.656Zm6.022 9.84 1.328-3.008-3.28-7.648h1.408l2.576 6.304 2.592-6.304h1.36l-4.624 10.656h-1.36Zm13.88-2.736a3.312 3.312 0 0 1-1.44-.304 2.608 2.608 0 0 1-.992-.864 2.125 2.125 0 0 1-.368-1.216c0-.565.144-1.013.432-1.344.299-.331.784-.565 1.456-.704.683-.149 1.611-.224 2.784-.224h.512v-.496c0-.661-.138-1.136-.416-1.424-.266-.299-.698-.448-1.296-.448-.469 0-.922.069-1.36.208a5.113 5.113 0 0 0-1.344.64l-.448-.944c.406-.288.896-.517 1.472-.688a6.005 6.005 0 0 1 1.68-.256c1.003 0 1.744.245 2.224.736.491.491.736 1.253.736 2.288V359h-1.216v-1.344a2.394 2.394 0 0 1-.944 1.088c-.416.267-.906.4-1.472.4Zm.208-.976c.64 0 1.163-.219 1.568-.656.406-.448.608-1.013.608-1.696v-.48h-.496c-.864 0-1.546.043-2.048.128-.49.075-.837.213-1.04.416-.192.192-.288.459-.288.8 0 .437.15.795.448 1.072.31.277.726.416 1.248.416Zm5.829.832v-7.776h1.264v1.328a2.524 2.524 0 0 1 1.088-1.104 3.37 3.37 0 0 1 1.584-.368c1.845 0 2.768 1.024 2.768 3.072V359h-1.296v-4.768c0-.725-.144-1.253-.432-1.584-.278-.341-.726-.512-1.344-.512-.715 0-1.286.224-1.712.672-.416.437-.624 1.024-.624 1.76V359h-1.296Zm12.053.144c-.693 0-1.301-.165-1.824-.496-.512-.331-.912-.795-1.2-1.392-.277-.608-.416-1.323-.416-2.144 0-.832.139-1.547.416-2.144.288-.608.688-1.072 1.2-1.392.523-.331 1.131-.496 1.824-.496.608 0 1.142.133 1.6.4.47.267.816.635 1.04 1.104v-4.864h1.296V359h-1.264v-1.424c-.224.491-.57.875-1.04 1.152-.469.277-1.013.416-1.632.416Zm.272-1.04c.726 0 1.307-.256 1.744-.768.438-.523.656-1.264.656-2.224 0-.971-.218-1.712-.656-2.224-.437-.512-1.018-.768-1.744-.768-.736 0-1.322.256-1.76.768-.426.512-.64 1.253-.64 2.224 0 .96.214 1.701.64 2.224.438.512 1.024.768 1.76.768Zm-77.24 25.04a5.73 5.73 0 0 1-1.729-.256c-.544-.171-.992-.411-1.343-.72l.415-.912a3.95 3.95 0 0 0 1.264.688c.47.139.944.208 1.424.208.609 0 1.067-.112 1.377-.336.309-.224.463-.528.463-.912 0-.299-.1-.533-.303-.704-.203-.181-.523-.32-.96-.416l-1.456-.32c-1.323-.288-1.985-.971-1.985-2.048 0-.704.278-1.269.833-1.696.565-.427 1.3-.64 2.208-.64.533 0 1.04.085 1.52.256.49.16.895.4 1.216.72l-.432.912a3.122 3.122 0 0 0-1.089-.656 3.29 3.29 0 0 0-1.215-.24c-.598 0-1.051.117-1.36.352a1.11 1.11 0 0 0-.465.928c0 .597.395.981 1.184 1.152l1.457.304c.682.149 1.2.389 1.551.72.353.32.529.757.529 1.312 0 .715-.283 1.28-.849 1.696-.565.405-1.317.608-2.255.608Zm8.12 0c-.917 0-1.605-.24-2.063-.72-.46-.491-.688-1.195-.688-2.112v-4.08h-1.52v-1.008h1.52v-2.384h1.295v2.384h2.465v1.008h-2.465v3.952c0 .608.129 1.072.385 1.392.255.309.672.464 1.248.464.17 0 .34-.021.511-.064.171-.043.326-.085.465-.128l.224.992a2.615 2.615 0 0 1-.609.208 3.29 3.29 0 0 1-.767.096Zm5.628 0c-.757 0-1.413-.165-1.968-.496a3.41 3.41 0 0 1-1.296-1.392c-.299-.608-.448-1.323-.448-2.144 0-.821.15-1.531.448-2.128a3.385 3.385 0 0 1 1.296-1.408c.555-.331 1.21-.496 1.968-.496.747 0 1.398.165 1.952.496.566.331.998.8 1.296 1.408.31.597.464 1.307.464 2.128 0 .821-.154 1.536-.464 2.144a3.273 3.273 0 0 1-1.296 1.392c-.554.331-1.205.496-1.952.496Zm0-1.04c.725 0 1.307-.256 1.744-.768.438-.523.656-1.264.656-2.224 0-.971-.219-1.712-.656-2.224-.437-.512-1.019-.768-1.744-.768-.736 0-1.322.256-1.76.768-.427.512-.64 1.253-.64 2.224 0 .96.213 1.701.64 2.224.438.512 1.024.768 1.76.768Zm5.659 3.776v-10.656h1.264v1.392c.234-.48.581-.853 1.04-1.12.47-.277 1.013-.416 1.632-.416.693 0 1.296.165 1.808.496.522.32.922.784 1.2 1.392.288.597.432 1.312.432 2.144 0 .821-.144 1.536-.432 2.144a3.2 3.2 0 0 1-1.2 1.392c-.512.331-1.115.496-1.808.496-.598 0-1.13-.133-1.6-.4a2.477 2.477 0 0 1-1.04-1.104v4.24h-1.296Zm3.664-3.776c.725 0 1.306-.256 1.744-.768.437-.523.656-1.264.656-2.224 0-.971-.219-1.712-.656-2.224-.438-.512-1.019-.768-1.744-.768-.726 0-1.307.256-1.744.768-.438.512-.656 1.253-.656 2.224 0 .96.218 1.701.656 2.224.437.512 1.018.768 1.744.768Zm13.005 1.04c-.757 0-1.413-.165-1.968-.496a3.409 3.409 0 0 1-1.296-1.392c-.298-.608-.448-1.323-.448-2.144 0-.821.15-1.531.448-2.128a3.384 3.384 0 0 1 1.296-1.408c.555-.331 1.211-.496 1.968-.496.747 0 1.398.165 1.952.496.566.331.998.8 1.296 1.408.31.597.464 1.307.464 2.128 0 .821-.154 1.536-.464 2.144a3.266 3.266 0 0 1-1.296 1.392c-.554.331-1.205.496-1.952.496Zm0-1.04c.726 0 1.307-.256 1.744-.768.438-.523.656-1.264.656-2.224 0-.971-.218-1.712-.656-2.224-.437-.512-1.018-.768-1.744-.768-.736 0-1.322.256-1.76.768-.426.512-.64 1.253-.64 2.224 0 .96.214 1.701.64 2.224.438.512 1.024.768 1.76.768Zm7.838.896-3.344-7.776h1.408l2.576 6.304 2.608-6.304h1.327L110.658 383h-1.216Zm9.341.144c-1.227 0-2.198-.357-2.912-1.072-.715-.725-1.072-1.707-1.072-2.944 0-.8.16-1.504.48-2.112.32-.619.757-1.093 1.312-1.424.565-.341 1.216-.512 1.952-.512 1.056 0 1.882.341 2.48 1.024.597.672.896 1.6.896 2.784v.496h-5.857c.043.885.299 1.563.769 2.032.469.459 1.12.688 1.952.688.469 0 .917-.069 1.344-.208a3.77 3.77 0 0 0 1.216-.72l.448.912c-.352.331-.8.592-1.344.784a5.24 5.24 0 0 1-1.664.272Zm-.208-7.104c-.736 0-1.318.229-1.744.688-.427.459-.678 1.061-.752 1.808h4.72c-.032-.789-.24-1.403-.624-1.84-.374-.437-.907-.656-1.6-.656Zm5.219 6.96v-7.776h1.264v1.392c.416-.939 1.269-1.456 2.56-1.552l.464-.048.096 1.12-.816.096c-.736.064-1.296.299-1.68.704-.384.395-.576.939-.576 1.632V383h-1.312Zm-58.032 24.144a5.73 5.73 0 0 1-1.728-.256c-.544-.171-.992-.411-1.344-.72l.416-.912a3.95 3.95 0 0 0 1.264.688c.47.139.944.208 1.424.208.608 0 1.067-.112 1.376-.336.31-.224.464-.528.464-.912 0-.299-.102-.533-.304-.704-.203-.181-.523-.32-.96-.416l-1.456-.32c-1.323-.288-1.984-.971-1.984-2.048 0-.704.277-1.269.832-1.696.565-.427 1.301-.64 2.208-.64.533 0 1.04.085 1.52.256.49.16.896.4 1.216.72l-.432.912a3.123 3.123 0 0 0-1.088-.656c-.406-.16-.81-.24-1.216-.24-.597 0-1.05.117-1.36.352a1.11 1.11 0 0 0-.464.928c0 .597.394.981 1.184 1.152l1.456.304c.683.149 1.2.389 1.552.72.352.32.528.757.528 1.312 0 .715-.283 1.28-.848 1.696-.566.405-1.317.608-2.256.608Zm5.079 2.736v-10.656h1.264v1.392c.235-.48.581-.853 1.04-1.12.47-.277 1.013-.416 1.632-.416.693 0 1.296.165 1.808.496.523.32.923.784 1.2 1.392.288.597.432 1.312.432 2.144 0 .821-.144 1.536-.432 2.144a3.198 3.198 0 0 1-1.2 1.392c-.512.331-1.115.496-1.808.496-.597 0-1.13-.133-1.6-.4a2.478 2.478 0 0 1-1.04-1.104v4.24h-1.296Zm3.664-3.776c.725 0 1.307-.256 1.744-.768.437-.523.656-1.264.656-2.224 0-.971-.219-1.712-.656-2.224-.437-.512-1.019-.768-1.744-.768-.725 0-1.307.256-1.744.768-.437.512-.656 1.253-.656 2.224 0 .96.219 1.701.656 2.224.437.512 1.019.768 1.744.768Zm9.168 1.04c-1.227 0-2.197-.357-2.912-1.072-.715-.725-1.072-1.707-1.072-2.944 0-.8.16-1.504.48-2.112.32-.619.758-1.093 1.312-1.424.566-.341 1.216-.512 1.952-.512 1.056 0 1.883.341 2.48 1.024.597.672.896 1.6.896 2.784v.496h-5.856c.043.885.299 1.563.768 2.032.47.459 1.12.688 1.952.688.47 0 .918-.069 1.344-.208a3.762 3.762 0 0 0 1.216-.72l.448.912c-.352.331-.8.592-1.344.784a5.238 5.238 0 0 1-1.664.272Zm-.208-7.104c-.736 0-1.317.229-1.744.688-.427.459-.677 1.061-.752 1.808h4.72c-.032-.789-.24-1.403-.624-1.84-.373-.437-.906-.656-1.6-.656Zm5.22 6.96v-7.776h1.264v1.328a2.527 2.527 0 0 1 1.088-1.104c.47-.245.997-.368 1.584-.368 1.845 0 2.768 1.024 2.768 3.072V407h-1.296v-4.768c0-.725-.144-1.253-.432-1.584-.278-.341-.726-.512-1.344-.512-.715 0-1.286.224-1.712.672-.416.437-.624 1.024-.624 1.76V407h-1.296Zm12.054.144c-.694 0-1.302-.165-1.825-.496-.511-.331-.912-.795-1.2-1.392-.277-.608-.415-1.323-.415-2.144 0-.832.138-1.547.415-2.144.288-.608.689-1.072 1.2-1.392.523-.331 1.131-.496 1.825-.496.608 0 1.141.133 1.6.4a2.48 2.48 0 0 1 1.04 1.104v-4.864h1.296V407h-1.264v-1.424a2.53 2.53 0 0 1-1.04 1.152c-.47.277-1.014.416-1.632.416Zm.272-1.04c.725 0 1.306-.256 1.744-.768.437-.523.656-1.264.656-2.224 0-.971-.219-1.712-.656-2.224-.438-.512-1.019-.768-1.744-.768-.736 0-1.323.256-1.76.768-.427.512-.64 1.253-.64 2.224 0 .96.213 1.701.64 2.224.437.512 1.024.768 1.76.768Zm5.936-8.816v-1.456h1.6v1.456h-1.6Zm.16 9.712v-7.776h1.296V407h-1.296Zm3.718 0v-7.776h1.264v1.328a2.53 2.53 0 0 1 1.088-1.104c.47-.245.998-.368 1.584-.368 1.846 0 2.768 1.024 2.768 3.072V407h-1.296v-4.768c0-.725-.144-1.253-.432-1.584-.277-.341-.725-.512-1.344-.512-.714 0-1.285.224-1.712.672-.416.437-.624 1.024-.624 1.76V407h-1.296Zm12.534 3.024a6.53 6.53 0 0 1-1.904-.272 4.715 4.715 0 0 1-1.568-.784l.432-.944c.48.341.955.587 1.424.736.48.149.997.224 1.552.224 1.536 0 2.304-.789 2.304-2.368v-1.376c-.224.491-.576.88-1.056 1.168-.469.277-1.008.416-1.616.416-.715 0-1.333-.165-1.856-.496a3.34 3.34 0 0 1-1.216-1.36c-.277-.587-.416-1.264-.416-2.032s.139-1.44.416-2.016a3.207 3.207 0 0 1 1.216-1.36c.523-.32 1.141-.48 1.856-.48.608 0 1.147.139 1.616.416.48.277.832.656 1.056 1.136v-1.408h1.264v7.216c0 1.195-.299 2.091-.896 2.688-.587.597-1.456.896-2.608.896Zm-.192-4.256c.747 0 1.339-.256 1.776-.768.437-.512.656-1.2.656-2.064 0-.864-.219-1.547-.656-2.048-.437-.512-1.029-.768-1.776-.768-.736 0-1.323.256-1.76.768-.437.501-.656 1.184-.656 2.048 0 .864.219 1.552.656 2.064.437.512 1.024.768 1.76.768ZM214.728 352v-11.28h1.024l6.8 9.072v-9.072h1.216V352h-.992l-6.816-9.104V352h-1.232Zm15.172.144c-1.227 0-2.198-.357-2.912-1.072-.715-.725-1.072-1.707-1.072-2.944 0-.8.16-1.504.48-2.112.32-.619.757-1.093 1.312-1.424.565-.341 1.216-.512 1.952-.512 1.056 0 1.882.341 2.48 1.024.597.672.896 1.6.896 2.784v.496h-5.856c.042.885.298 1.563.768 2.032.469.459 1.12.688 1.952.688.469 0 .917-.069 1.344-.208a3.77 3.77 0 0 0 1.216-.72l.448.912c-.352.331-.8.592-1.344.784a5.24 5.24 0 0 1-1.664.272Zm-.208-7.104c-.736 0-1.318.229-1.744.688-.427.459-.678 1.061-.752 1.808h4.72c-.032-.789-.24-1.403-.624-1.84-.374-.437-.907-.656-1.6-.656Zm8.723 7.104c-1.226 0-2.197-.357-2.912-1.072-.714-.725-1.072-1.707-1.072-2.944 0-.8.16-1.504.48-2.112a3.47 3.47 0 0 1 1.312-1.424c.566-.341 1.216-.512 1.952-.512 1.056 0 1.883.341 2.48 1.024.598.672.896 1.6.896 2.784v.496h-5.856c.043.885.299 1.563.768 2.032.47.459 1.12.688 1.952.688.47 0 .918-.069 1.344-.208a3.76 3.76 0 0 0 1.216-.72l.448.912c-.352.331-.8.592-1.344.784a5.236 5.236 0 0 1-1.664.272Zm-.208-7.104c-.736 0-1.317.229-1.744.688-.426.459-.677 1.061-.752 1.808h4.72c-.032-.789-.24-1.403-.624-1.84-.373-.437-.906-.656-1.6-.656Zm8.18 7.104c-.693 0-1.301-.165-1.824-.496-.512-.331-.912-.795-1.2-1.392-.277-.608-.416-1.323-.416-2.144 0-.832.139-1.547.416-2.144.288-.608.688-1.072 1.2-1.392.523-.331 1.131-.496 1.824-.496.608 0 1.141.133 1.6.4a2.48 2.48 0 0 1 1.04 1.104v-4.864h1.296V352h-1.264v-1.424a2.53 2.53 0 0 1-1.04 1.152c-.469.277-1.013.416-1.632.416Zm.272-1.04c.725 0 1.307-.256 1.744-.768.437-.523.656-1.264.656-2.224 0-.971-.219-1.712-.656-2.224-.437-.512-1.019-.768-1.744-.768-.736 0-1.323.256-1.76.768-.427.512-.64 1.253-.64 2.224 0 .96.213 1.701.64 2.224.437.512 1.024.768 1.76.768Zm13.325 1.04c-.917 0-1.605-.24-2.064-.72-.458-.491-.688-1.195-.688-2.112v-4.08h-1.52v-1.008h1.52v-2.384h1.296v2.384h2.464v1.008h-2.464v3.952c0 .608.128 1.072.384 1.392.256.309.672.464 1.248.464.171 0 .342-.021.512-.064a8.78 8.78 0 0 0 .464-.128l.224.992a2.598 2.598 0 0 1-.608.208 3.281 3.281 0 0 1-.768.096Zm5.628 0c-.757 0-1.413-.165-1.968-.496a3.405 3.405 0 0 1-1.296-1.392c-.299-.608-.448-1.323-.448-2.144 0-.821.149-1.531.448-2.128a3.38 3.38 0 0 1 1.296-1.408c.555-.331 1.211-.496 1.968-.496.747 0 1.397.165 1.952.496.565.331.997.8 1.296 1.408.309.597.464 1.307.464 2.128 0 .821-.155 1.536-.464 2.144a3.278 3.278 0 0 1-1.296 1.392c-.555.331-1.205.496-1.952.496Zm0-1.04c.725 0 1.307-.256 1.744-.768.437-.523.656-1.264.656-2.224 0-.971-.219-1.712-.656-2.224-.437-.512-1.019-.768-1.744-.768-.736 0-1.323.256-1.76.768-.427.512-.64 1.253-.64 2.224 0 .96.213 1.701.64 2.224.437.512 1.024.768 1.76.768Zm9.8.896v-7.776h1.264v1.312c.235-.469.56-.827.976-1.072.416-.256.901-.384 1.456-.384 1.216 0 1.995.528 2.336 1.584a2.65 2.65 0 0 1 1.04-1.152c.459-.288.987-.432 1.584-.432 1.728 0 2.592 1.024 2.592 3.072V352h-1.296v-4.784c0-.715-.128-1.237-.384-1.568-.245-.341-.656-.512-1.232-.512-.629 0-1.131.224-1.504.672-.373.448-.56 1.045-.56 1.792v4.4h-1.296v-4.784c0-.715-.128-1.237-.384-1.568-.245-.341-.656-.512-1.232-.512-.64 0-1.147.224-1.52.672-.363.448-.544 1.045-.544 1.792v4.4h-1.296Zm16.119.144a3.312 3.312 0 0 1-1.44-.304 2.608 2.608 0 0 1-.992-.864 2.125 2.125 0 0 1-.368-1.216c0-.565.144-1.013.432-1.344.299-.331.784-.565 1.456-.704.683-.149 1.611-.224 2.784-.224h.512v-.496c0-.661-.138-1.136-.416-1.424-.266-.299-.698-.448-1.296-.448-.469 0-.922.069-1.36.208a5.113 5.113 0 0 0-1.344.64l-.448-.944c.406-.288.896-.517 1.472-.688a6.005 6.005 0 0 1 1.68-.256c1.003 0 1.744.245 2.224.736.491.491.736 1.253.736 2.288V352h-1.216v-1.344a2.394 2.394 0 0 1-.944 1.088c-.416.267-.906.4-1.472.4Zm.208-.976c.64 0 1.163-.219 1.568-.656.406-.448.608-1.013.608-1.696v-.48h-.496c-.864 0-1.546.043-2.048.128-.49.075-.837.213-1.04.416-.192.192-.288.459-.288.8 0 .437.15.795.448 1.072.31.277.726.416 1.248.416Zm5.829.832v-11.28h1.296v6.96h.032l3.6-3.456h1.648l-3.904 3.744 4.24 4.032h-1.648l-3.936-3.648h-.032V352h-1.296Zm11.3.144c-1.226 0-2.197-.357-2.912-1.072-.714-.725-1.072-1.707-1.072-2.944 0-.8.16-1.504.48-2.112a3.47 3.47 0 0 1 1.312-1.424c.566-.341 1.216-.512 1.952-.512 1.056 0 1.883.341 2.48 1.024.598.672.896 1.6.896 2.784v.496h-5.856c.043.885.299 1.563.768 2.032.47.459 1.12.688 1.952.688.47 0 .918-.069 1.344-.208a3.76 3.76 0 0 0 1.216-.72l.448.912c-.352.331-.8.592-1.344.784a5.236 5.236 0 0 1-1.664.272Zm-.208-7.104c-.736 0-1.317.229-1.744.688-.426.459-.677 1.061-.752 1.808h4.72c-.032-.789-.24-1.403-.624-1.84-.373-.437-.906-.656-1.6-.656Zm-93.901 31.104c-1.227 0-2.197-.357-2.912-1.072-.715-.725-1.072-1.707-1.072-2.944 0-.8.16-1.504.48-2.112.32-.619.757-1.093 1.312-1.424.565-.341 1.216-.512 1.952-.512 1.056 0 1.883.341 2.48 1.024.597.672.896 1.6.896 2.784v.496h-5.856c.043.885.299 1.563.768 2.032.469.459 1.12.688 1.952.688.469 0 .917-.069 1.344-.208a3.76 3.76 0 0 0 1.216-.72l.448.912c-.352.331-.8.592-1.344.784a5.24 5.24 0 0 1-1.664.272Zm-.208-7.104c-.736 0-1.317.229-1.744.688-.427.459-.677 1.061-.752 1.808h4.72c-.032-.789-.24-1.403-.624-1.84-.373-.437-.907-.656-1.6-.656Zm4.165 6.96 3.232-4.016-3.04-3.76h1.536l2.256 2.864 2.272-2.864h1.52l-3.04 3.76 3.232 4.016h-1.536l-2.464-3.088-2.432 3.088h-1.536Zm12.518.144c-.917 0-1.605-.24-2.064-.72-.458-.491-.688-1.195-.688-2.112v-4.08h-1.52v-1.008h1.52v-2.384h1.296v2.384h2.464v1.008h-2.464v3.952c0 .608.128 1.072.384 1.392.256.309.672.464 1.248.464.171 0 .342-.021.512-.064a8.78 8.78 0 0 0 .464-.128l.224.992a2.598 2.598 0 0 1-.608.208 3.281 3.281 0 0 1-.768.096Zm2.474-.144v-7.776h1.264v1.392c.416-.939 1.27-1.456 2.56-1.552l.464-.048.096 1.12-.816.096c-.736.064-1.296.299-1.68.704-.384.395-.576.939-.576 1.632V376h-1.312Zm8.104.144a3.312 3.312 0 0 1-1.44-.304 2.608 2.608 0 0 1-.992-.864 2.125 2.125 0 0 1-.368-1.216c0-.565.144-1.013.432-1.344.299-.331.784-.565 1.456-.704.683-.149 1.611-.224 2.784-.224h.512v-.496c0-.661-.138-1.136-.416-1.424-.266-.299-.698-.448-1.296-.448-.469 0-.922.069-1.36.208a5.113 5.113 0 0 0-1.344.64l-.448-.944c.406-.288.896-.517 1.472-.688a6.005 6.005 0 0 1 1.68-.256c1.003 0 1.744.245 2.224.736.491.491.736 1.253.736 2.288V376h-1.216v-1.344a2.394 2.394 0 0 1-.944 1.088c-.416.267-.906.4-1.472.4Zm.208-.976c.64 0 1.163-.219 1.568-.656.406-.448.608-1.013.608-1.696v-.48h-.496c-.864 0-1.546.043-2.048.128-.49.075-.837.213-1.04.416-.192.192-.288.459-.288.8 0 .437.15.795.448 1.072.31.277.726.416 1.248.416Zm12.562.976a5.73 5.73 0 0 1-1.728-.256c-.544-.171-.992-.411-1.344-.72l.416-.912c.384.309.806.539 1.264.688.47.139.944.208 1.424.208.608 0 1.067-.112 1.376-.336.31-.224.464-.528.464-.912 0-.299-.101-.533-.304-.704-.202-.181-.522-.32-.96-.416l-1.456-.32c-1.322-.288-1.984-.971-1.984-2.048 0-.704.278-1.269.832-1.696.566-.427 1.302-.64 2.208-.64.534 0 1.04.085 1.52.256a3 3 0 0 1 1.216.72l-.432.912a3.12 3.12 0 0 0-1.088-.656c-.405-.16-.81-.24-1.216-.24-.597 0-1.05.117-1.36.352a1.11 1.11 0 0 0-.464.928c0 .597.395.981 1.184 1.152l1.456.304c.683.149 1.2.389 1.552.72.352.32.528.757.528 1.312 0 .715-.282 1.28-.848 1.696-.565.405-1.317.608-2.256.608Zm8.311 0c-.757 0-1.413-.165-1.968-.496a3.418 3.418 0 0 1-1.296-1.392c-.298-.608-.448-1.323-.448-2.144 0-.821.15-1.531.448-2.128a3.393 3.393 0 0 1 1.296-1.408c.555-.331 1.211-.496 1.968-.496.747 0 1.398.165 1.952.496.566.331.998.8 1.296 1.408.31.597.464 1.307.464 2.128 0 .821-.154 1.536-.464 2.144a3.266 3.266 0 0 1-1.296 1.392c-.554.331-1.205.496-1.952.496Zm0-1.04c.726 0 1.307-.256 1.744-.768.438-.523.656-1.264.656-2.224 0-.971-.218-1.712-.656-2.224-.437-.512-1.018-.768-1.744-.768-.736 0-1.322.256-1.76.768-.426.512-.64 1.253-.64 2.224 0 .96.214 1.701.64 2.224.438.512 1.024.768 1.76.768Zm8.411 1.04c-1.867 0-2.8-1.029-2.8-3.088v-4.832h1.296v4.816c0 .693.139 1.205.416 1.536.288.331.736.496 1.344.496.661 0 1.2-.219 1.616-.656.416-.448.624-1.04.624-1.776v-4.416h1.296V376h-1.264v-1.312a2.624 2.624 0 0 1-1.04 1.088 2.99 2.99 0 0 1-1.488.368Zm6.217-.144v-7.776h1.264v1.392c.416-.939 1.269-1.456 2.56-1.552l.464-.048.096 1.12-.816.096c-.736.064-1.296.299-1.68.704-.384.395-.576.939-.576 1.632V376h-1.312Zm8.936.144c-.778 0-1.45-.165-2.016-.496a3.46 3.46 0 0 1-1.312-1.424c-.298-.619-.448-1.339-.448-2.16 0-1.237.336-2.208 1.008-2.912.672-.715 1.595-1.072 2.768-1.072.48 0 .955.085 1.424.256.47.171.859.411 1.168.72l-.448.944a2.934 2.934 0 0 0-1.024-.656 2.9 2.9 0 0 0-1.04-.208c-.81 0-1.434.256-1.872.768-.437.501-.656 1.227-.656 2.176 0 .928.219 1.664.656 2.208.438.533 1.062.8 1.872.8a2.9 2.9 0 0 0 1.04-.208 2.844 2.844 0 0 0 1.024-.672l.448.944a3.288 3.288 0 0 1-1.184.736 4.084 4.084 0 0 1-1.408.256Zm7.458 0c-1.226 0-2.197-.357-2.912-1.072-.714-.725-1.072-1.707-1.072-2.944 0-.8.16-1.504.48-2.112a3.47 3.47 0 0 1 1.312-1.424c.566-.341 1.216-.512 1.952-.512 1.056 0 1.883.341 2.48 1.024.598.672.896 1.6.896 2.784v.496h-5.856c.043.885.299 1.563.768 2.032.47.459 1.12.688 1.952.688.47 0 .918-.069 1.344-.208a3.76 3.76 0 0 0 1.216-.72l.448.912c-.352.331-.8.592-1.344.784a5.236 5.236 0 0 1-1.664.272Zm-.208-7.104c-.736 0-1.317.229-1.744.688-.426.459-.677 1.061-.752 1.808h4.72c-.032-.789-.24-1.403-.624-1.84-.373-.437-.906-.656-1.6-.656Zm12.561 7.104c-.757 0-1.413-.165-1.968-.496a3.418 3.418 0 0 1-1.296-1.392c-.298-.608-.448-1.323-.448-2.144 0-.821.15-1.531.448-2.128a3.393 3.393 0 0 1 1.296-1.408c.555-.331 1.211-.496 1.968-.496.747 0 1.398.165 1.952.496.566.331.998.8 1.296 1.408.31.597.464 1.307.464 2.128 0 .821-.154 1.536-.464 2.144a3.266 3.266 0 0 1-1.296 1.392c-.554.331-1.205.496-1.952.496Zm0-1.04c.726 0 1.307-.256 1.744-.768.438-.523.656-1.264.656-2.224 0-.971-.218-1.712-.656-2.224-.437-.512-1.018-.768-1.744-.768-.736 0-1.322.256-1.76.768-.426.512-.64 1.253-.64 2.224 0 .96.214 1.701.64 2.224.438.512 1.024.768 1.76.768Zm5.997.896v-6.768h-1.536v-1.008h1.536v-.272c0-1.035.256-1.819.768-2.352.522-.533 1.322-.832 2.4-.896l.624-.032.112.992-.736.048c-.662.053-1.142.251-1.44.592-.288.341-.432.837-.432 1.488v.432h2.24v1.008h-2.24V376h-1.296Zm-73.795 14.288v-1.456h1.6v1.456h-1.6Zm.16 9.712v-7.776h1.296V400h-1.296Zm3.719 0v-7.776h1.264v1.328a2.524 2.524 0 0 1 1.088-1.104 3.37 3.37 0 0 1 1.584-.368c1.845 0 2.768 1.024 2.768 3.072V400h-1.296v-4.768c0-.725-.144-1.253-.432-1.584-.278-.341-.726-.512-1.344-.512-.715 0-1.286.224-1.712.672-.416.437-.624 1.024-.624 1.76V400h-1.296Zm12.39.144c-.779 0-1.451-.165-2.016-.496a3.447 3.447 0 0 1-1.312-1.424c-.299-.619-.448-1.339-.448-2.16 0-1.237.336-2.208 1.008-2.912.672-.715 1.594-1.072 2.768-1.072.48 0 .954.085 1.424.256.469.171.858.411 1.168.72l-.448.944a2.952 2.952 0 0 0-1.024-.656 2.907 2.907 0 0 0-1.04-.208c-.811 0-1.435.256-1.872.768-.438.501-.656 1.227-.656 2.176 0 .928.218 1.664.656 2.208.437.533 1.061.8 1.872.8.33 0 .677-.069 1.04-.208a2.861 2.861 0 0 0 1.024-.672l.448.944c-.31.309-.704.555-1.184.736-.47.171-.939.256-1.408.256Zm7.186 0c-.758 0-1.414-.165-1.968-.496a3.405 3.405 0 0 1-1.296-1.392c-.299-.608-.448-1.323-.448-2.144 0-.821.149-1.531.448-2.128a3.38 3.38 0 0 1 1.296-1.408c.554-.331 1.21-.496 1.968-.496.746 0 1.397.165 1.952.496.565.331.997.8 1.296 1.408.309.597.464 1.307.464 2.128 0 .821-.155 1.536-.464 2.144a3.278 3.278 0 0 1-1.296 1.392c-.555.331-1.206.496-1.952.496Zm0-1.04c.725 0 1.306-.256 1.744-.768.437-.523.656-1.264.656-2.224 0-.971-.219-1.712-.656-2.224-.438-.512-1.019-.768-1.744-.768-.736 0-1.323.256-1.76.768-.427.512-.64 1.253-.64 2.224 0 .96.213 1.701.64 2.224.437.512 1.024.768 1.76.768Zm5.69.896v-7.776h1.264v1.312c.235-.469.56-.827.976-1.072.416-.256.902-.384 1.456-.384 1.216 0 1.995.528 2.336 1.584a2.657 2.657 0 0 1 1.04-1.152c.459-.288.987-.432 1.584-.432 1.728 0 2.592 1.024 2.592 3.072V400h-1.296v-4.784c0-.715-.128-1.237-.384-1.568-.245-.341-.656-.512-1.232-.512-.629 0-1.13.224-1.504.672-.373.448-.56 1.045-.56 1.792v4.4h-1.296v-4.784c0-.715-.128-1.237-.384-1.568-.245-.341-.656-.512-1.232-.512-.64 0-1.146.224-1.52.672-.362.448-.544 1.045-.544 1.792v4.4h-1.296Zm17.175.144c-1.226 0-2.197-.357-2.912-1.072-.714-.725-1.072-1.707-1.072-2.944 0-.8.16-1.504.48-2.112a3.47 3.47 0 0 1 1.312-1.424c.566-.341 1.216-.512 1.952-.512 1.056 0 1.883.341 2.48 1.024.598.672.896 1.6.896 2.784v.496h-5.856c.043.885.299 1.563.768 2.032.47.459 1.12.688 1.952.688.47 0 .918-.069 1.344-.208a3.76 3.76 0 0 0 1.216-.72l.448.912c-.352.331-.8.592-1.344.784a5.236 5.236 0 0 1-1.664.272Zm-.208-7.104c-.736 0-1.317.229-1.744.688-.426.459-.677 1.061-.752 1.808h4.72c-.032-.789-.24-1.403-.624-1.84-.373-.437-.906-.656-1.6-.656ZM208.526 107l-3.952-11.28h1.376l3.184 9.36 3.264-9.36h1.056l3.232 9.44 3.248-9.44h1.312L217.294 107h-1.168l-3.216-9.28-3.248 9.28h-1.136Zm14.393 0V95.72h1.296v4.784a2.497 2.497 0 0 1 1.072-1.056 3.332 3.332 0 0 1 1.568-.368c1.845 0 2.768 1.024 2.768 3.072V107h-1.296v-4.768c0-.725-.144-1.253-.432-1.584-.277-.341-.725-.512-1.344-.512-.715 0-1.285.224-1.712.672-.416.437-.624 1.024-.624 1.76V107h-1.296Zm12.598.144c-1.227 0-2.197-.357-2.912-1.072-.715-.725-1.072-1.707-1.072-2.944 0-.8.16-1.504.48-2.112.32-.619.757-1.093 1.312-1.424.565-.341 1.216-.512 1.952-.512 1.056 0 1.883.341 2.48 1.024.597.672.896 1.6.896 2.784v.496h-5.856c.043.885.299 1.563.768 2.032.469.459 1.12.688 1.952.688.469 0 .917-.069 1.344-.208a3.76 3.76 0 0 0 1.216-.72l.448.912c-.352.331-.8.592-1.344.784a5.24 5.24 0 0 1-1.664.272Zm-.208-7.104c-.736 0-1.317.229-1.744.688-.427.459-.677 1.061-.752 1.808h4.72c-.032-.789-.24-1.403-.624-1.84-.373-.437-.907-.656-1.6-.656Zm5.22 6.96v-7.776h1.264v1.392c.416-.939 1.269-1.456 2.56-1.552l.464-.048.096 1.12-.816.096c-.736.064-1.296.299-1.68.704-.384.395-.576.939-.576 1.632V107h-1.312Zm9.144.144c-1.227 0-2.197-.357-2.912-1.072-.715-.725-1.072-1.707-1.072-2.944 0-.8.16-1.504.48-2.112.32-.619.757-1.093 1.312-1.424.565-.341 1.216-.512 1.952-.512 1.056 0 1.883.341 2.48 1.024.597.672.896 1.6.896 2.784v.496h-5.856c.043.885.299 1.563.768 2.032.469.459 1.12.688 1.952.688.469 0 .917-.069 1.344-.208a3.76 3.76 0 0 0 1.216-.72l.448.912c-.352.331-.8.592-1.344.784a5.24 5.24 0 0 1-1.664.272Zm-.208-7.104c-.736 0-1.317.229-1.744.688-.427.459-.677 1.061-.752 1.808h4.72c-.032-.789-.24-1.403-.624-1.84-.373-.437-.907-.656-1.6-.656Zm12.625 7.104c-.779 0-1.451-.165-2.016-.496a3.454 3.454 0 0 1-1.312-1.424c-.299-.619-.448-1.339-.448-2.16 0-1.237.336-2.208 1.008-2.912.672-.715 1.595-1.072 2.768-1.072.48 0 .955.085 1.424.256.469.17.859.41 1.168.72l-.448.944a2.943 2.943 0 0 0-1.024-.656 2.903 2.903 0 0 0-1.04-.208c-.811 0-1.435.256-1.872.768-.437.501-.656 1.227-.656 2.176 0 .928.219 1.664.656 2.208.437.533 1.061.8 1.872.8.331 0 .677-.069 1.04-.208a2.853 2.853 0 0 0 1.024-.672l.448.944a3.288 3.288 0 0 1-1.184.736 4.088 4.088 0 0 1-1.408.256Zm6.496 0a3.312 3.312 0 0 1-1.44-.304 2.6 2.6 0 0 1-.992-.864 2.125 2.125 0 0 1-.368-1.216c0-.565.144-1.013.432-1.344.299-.331.784-.565 1.456-.704.683-.149 1.611-.224 2.784-.224h.512v-.496c0-.661-.139-1.136-.416-1.424-.267-.299-.699-.448-1.296-.448-.469 0-.923.069-1.36.208a5.113 5.113 0 0 0-1.344.64l-.448-.944c.405-.288.896-.517 1.472-.688a6.016 6.016 0 0 1 1.68-.256c1.003 0 1.744.245 2.224.736.491.491.736 1.253.736 2.288V107h-1.216v-1.344a2.4 2.4 0 0 1-.944 1.088c-.416.267-.907.4-1.472.4Zm.208-.976c.64 0 1.163-.219 1.568-.656.405-.448.608-1.013.608-1.696v-.48h-.496c-.864 0-1.547.043-2.048.128-.491.075-.837.213-1.04.416-.192.192-.288.459-.288.8 0 .437.149.795.448 1.072.309.277.725.416 1.248.416Zm5.828.832v-7.776h1.264v1.328a2.53 2.53 0 0 1 1.088-1.104c.47-.245.998-.368 1.584-.368 1.846 0 2.768 1.024 2.768 3.072V107h-1.296v-4.768c0-.725-.144-1.253-.432-1.584-.277-.341-.725-.512-1.344-.512-.714 0-1.285.224-1.712.672-.416.437-.624 1.024-.624 1.76V107h-1.296Zm13.043-9.712v-1.456h1.6v1.456h-1.6Zm.16 9.712v-7.776h1.296V107h-1.296Zm8.245 0v-6.768h-1.536v-1.008h1.536v-.272c0-1.035.256-1.819.768-2.352.522-.533 1.322-.832 2.4-.896l.624-.032.112.992-.736.048c-.662.053-1.142.25-1.44.592-.288.341-.432.837-.432 1.488v.432h2.24v1.008h-2.24V107h-1.296Zm4.752-9.712v-1.456h1.6v1.456h-1.6Zm.16 9.712v-7.776h1.296V107h-1.296Zm3.718 0v-7.776h1.264v1.328a2.53 2.53 0 0 1 1.088-1.104c.47-.245.998-.368 1.584-.368 1.846 0 2.768 1.024 2.768 3.072V107h-1.296v-4.768c0-.725-.144-1.253-.432-1.584-.277-.341-.725-.512-1.344-.512-.714 0-1.285.224-1.712.672-.416.437-.624 1.024-.624 1.76V107H304.7Zm12.054.144c-.693 0-1.301-.165-1.824-.496-.512-.331-.912-.795-1.2-1.392-.277-.608-.416-1.323-.416-2.144 0-.832.139-1.547.416-2.144.288-.608.688-1.072 1.2-1.392.523-.33 1.131-.496 1.824-.496.608 0 1.141.133 1.6.4.469.267.816.635 1.04 1.104V95.72h1.296V107h-1.264v-1.424a2.53 2.53 0 0 1-1.04 1.152c-.469.277-1.013.416-1.632.416Zm.272-1.04c.725 0 1.307-.256 1.744-.768.437-.523.656-1.264.656-2.224 0-.971-.219-1.712-.656-2.224-.437-.512-1.019-.768-1.744-.768-.736 0-1.323.256-1.76.768-.427.512-.64 1.253-.64 2.224 0 .96.213 1.701.64 2.224.437.512 1.024.768 1.76.768Zm-92.72 15.184v-1.456h1.6v1.456h-1.6Zm.16 9.712v-7.776h1.296V131h-1.296Zm3.719 0v-7.776h1.264v1.328a2.524 2.524 0 0 1 1.088-1.104 3.37 3.37 0 0 1 1.584-.368c1.845 0 2.768 1.024 2.768 3.072V131h-1.296v-4.768c0-.725-.144-1.253-.432-1.584-.278-.341-.726-.512-1.344-.512-.715 0-1.286.224-1.712.672-.416.437-.624 1.024-.624 1.76V131h-1.296Zm11.303 0-3.344-7.776h1.408l2.576 6.304 2.608-6.304h1.328l-3.36 7.776h-1.216Zm9.341.144c-1.226 0-2.197-.357-2.912-1.072-.714-.725-1.072-1.707-1.072-2.944 0-.8.16-1.504.48-2.112a3.47 3.47 0 0 1 1.312-1.424c.566-.341 1.216-.512 1.952-.512 1.056 0 1.883.341 2.48 1.024.598.672.896 1.6.896 2.784v.496h-5.856c.043.885.299 1.563.768 2.032.47.459 1.12.688 1.952.688.47 0 .918-.069 1.344-.208a3.76 3.76 0 0 0 1.216-.72l.448.912c-.352.331-.8.592-1.344.784a5.236 5.236 0 0 1-1.664.272Zm-.208-7.104c-.736 0-1.317.229-1.744.688-.426.459-.677 1.061-.752 1.808h4.72c-.032-.789-.24-1.403-.624-1.84-.373-.437-.906-.656-1.6-.656Zm7.844 7.104a5.73 5.73 0 0 1-1.728-.256c-.544-.171-.992-.411-1.344-.72l.416-.912c.384.309.805.539 1.264.688.469.139.944.208 1.424.208.608 0 1.067-.112 1.376-.336.309-.224.464-.528.464-.912 0-.299-.101-.533-.304-.704-.203-.181-.523-.32-.96-.416l-1.456-.32c-1.323-.288-1.984-.971-1.984-2.048 0-.704.277-1.269.832-1.696.565-.427 1.301-.64 2.208-.64.533 0 1.04.085 1.52.256a3 3 0 0 1 1.216.72l-.432.912a3.12 3.12 0 0 0-1.088-.656 3.29 3.29 0 0 0-1.216-.24c-.597 0-1.051.117-1.36.352a1.11 1.11 0 0 0-.464.928c0 .597.395.981 1.184 1.152l1.456.304c.683.149 1.2.389 1.552.72.352.32.528.757.528 1.312 0 .715-.283 1.28-.848 1.696-.565.405-1.317.608-2.256.608Zm8.121 0c-.917 0-1.605-.24-2.064-.72-.459-.491-.688-1.195-.688-2.112v-4.08h-1.52v-1.008h1.52v-2.384h1.296v2.384h2.464v1.008h-2.464v3.952c0 .608.128 1.072.384 1.392.256.309.672.464 1.248.464.171 0 .341-.021.512-.064.171-.043.325-.085.464-.128l.224.992a2.615 2.615 0 0 1-.608.208 3.294 3.294 0 0 1-.768.096Zm2.506-.144v-7.776h1.264v1.312c.234-.469.56-.827.976-1.072.416-.256.901-.384 1.456-.384 1.216 0 1.994.528 2.336 1.584a2.645 2.645 0 0 1 1.04-1.152c.458-.288.986-.432 1.584-.432 1.728 0 2.592 1.024 2.592 3.072V131h-1.296v-4.784c0-.715-.128-1.237-.384-1.568-.246-.341-.656-.512-1.232-.512-.63 0-1.131.224-1.504.672-.374.448-.56 1.045-.56 1.792v4.4h-1.296v-4.784c0-.715-.128-1.237-.384-1.568-.246-.341-.656-.512-1.232-.512-.64 0-1.147.224-1.52.672-.363.448-.544 1.045-.544 1.792v4.4h-1.296Zm17.175.144c-1.227 0-2.197-.357-2.912-1.072-.715-.725-1.072-1.707-1.072-2.944 0-.8.16-1.504.48-2.112.32-.619.757-1.093 1.312-1.424.565-.341 1.216-.512 1.952-.512 1.056 0 1.883.341 2.48 1.024.597.672.896 1.6.896 2.784v.496h-5.856c.043.885.299 1.563.768 2.032.469.459 1.12.688 1.952.688.469 0 .917-.069 1.344-.208a3.76 3.76 0 0 0 1.216-.72l.448.912c-.352.331-.8.592-1.344.784a5.24 5.24 0 0 1-1.664.272Zm-.208-7.104c-.736 0-1.317.229-1.744.688-.427.459-.677 1.061-.752 1.808h4.72c-.032-.789-.24-1.403-.624-1.84-.373-.437-.907-.656-1.6-.656Zm5.22 6.96v-7.776h1.264v1.328a2.524 2.524 0 0 1 1.088-1.104 3.37 3.37 0 0 1 1.584-.368c1.845 0 2.768 1.024 2.768 3.072V131h-1.296v-4.768c0-.725-.144-1.253-.432-1.584-.278-.341-.726-.512-1.344-.512-.715 0-1.286.224-1.712.672-.416.437-.624 1.024-.624 1.76V131h-1.296Zm12.213.144c-.917 0-1.605-.24-2.064-.72-.458-.491-.688-1.195-.688-2.112v-4.08h-1.52v-1.008h1.52v-2.384h1.296v2.384h2.464v1.008h-2.464v3.952c0 .608.128 1.072.384 1.392.256.309.672.464 1.248.464.171 0 .342-.021.512-.064a8.78 8.78 0 0 0 .464-.128l.224.992a2.598 2.598 0 0 1-.608.208 3.281 3.281 0 0 1-.768.096Zm-81.794 24c-.757 0-1.413-.165-1.968-.496a3.405 3.405 0 0 1-1.296-1.392c-.299-.608-.448-1.323-.448-2.144 0-.821.149-1.531.448-2.128a3.38 3.38 0 0 1 1.296-1.408c.555-.331 1.211-.496 1.968-.496.747 0 1.397.165 1.952.496.565.331.997.8 1.296 1.408.309.597.464 1.307.464 2.128 0 .821-.155 1.536-.464 2.144a3.278 3.278 0 0 1-1.296 1.392c-.555.331-1.205.496-1.952.496Zm0-1.04c.725 0 1.307-.256 1.744-.768.437-.523.656-1.264.656-2.224 0-.971-.219-1.712-.656-2.224-.437-.512-1.019-.768-1.744-.768-.736 0-1.323.256-1.76.768-.427.512-.64 1.253-.64 2.224 0 .96.213 1.701.64 2.224.437.512 1.024.768 1.76.768Zm5.659 3.776v-10.656h1.264v1.392c.234-.48.581-.853 1.04-1.12.469-.277 1.013-.416 1.632-.416.693 0 1.296.165 1.808.496.522.32.922.784 1.2 1.392.288.597.432 1.312.432 2.144 0 .821-.144 1.536-.432 2.144a3.207 3.207 0 0 1-1.2 1.392c-.512.331-1.115.496-1.808.496-.598 0-1.131-.133-1.6-.4a2.474 2.474 0 0 1-1.04-1.104v4.24h-1.296Zm3.664-3.776c.725 0 1.306-.256 1.744-.768.437-.523.656-1.264.656-2.224 0-.971-.219-1.712-.656-2.224-.438-.512-1.019-.768-1.744-.768-.726 0-1.307.256-1.744.768-.438.512-.656 1.253-.656 2.224 0 .96.218 1.701.656 2.224.437.512 1.018.768 1.744.768Zm5.664 3.776v-10.656h1.264v1.392c.234-.48.581-.853 1.04-1.12.469-.277 1.013-.416 1.632-.416.693 0 1.296.165 1.808.496.522.32.922.784 1.2 1.392.288.597.432 1.312.432 2.144 0 .821-.144 1.536-.432 2.144a3.207 3.207 0 0 1-1.2 1.392c-.512.331-1.115.496-1.808.496-.598 0-1.131-.133-1.6-.4a2.474 2.474 0 0 1-1.04-1.104v4.24h-1.296Zm3.664-3.776c.725 0 1.306-.256 1.744-.768.437-.523.656-1.264.656-2.224 0-.971-.219-1.712-.656-2.224-.438-.512-1.019-.768-1.744-.768-.726 0-1.307.256-1.744.768-.438.512-.656 1.253-.656 2.224 0 .96.218 1.701.656 2.224.437.512 1.018.768 1.744.768Zm8.896 1.04c-.757 0-1.413-.165-1.968-.496a3.405 3.405 0 0 1-1.296-1.392c-.299-.608-.448-1.323-.448-2.144 0-.821.149-1.531.448-2.128a3.38 3.38 0 0 1 1.296-1.408c.555-.331 1.211-.496 1.968-.496.747 0 1.397.165 1.952.496.565.331.997.8 1.296 1.408.309.597.464 1.307.464 2.128 0 .821-.155 1.536-.464 2.144a3.278 3.278 0 0 1-1.296 1.392c-.555.331-1.205.496-1.952.496Zm0-1.04c.725 0 1.307-.256 1.744-.768.437-.523.656-1.264.656-2.224 0-.971-.219-1.712-.656-2.224-.437-.512-1.019-.768-1.744-.768-.736 0-1.323.256-1.76.768-.427.512-.64 1.253-.64 2.224 0 .96.213 1.701.64 2.224.437.512 1.024.768 1.76.768Zm5.659.896v-7.776h1.264v1.392c.416-.939 1.269-1.456 2.56-1.552l.464-.048.096 1.12-.816.096c-.736.064-1.296.299-1.68.704-.384.395-.576.939-.576 1.632V155h-1.312Zm9.276.144c-.918 0-1.606-.24-2.064-.72-.459-.491-.688-1.195-.688-2.112v-4.08h-1.52v-1.008h1.52v-2.384h1.296v2.384h2.464v1.008h-2.464v3.952c0 .608.128 1.072.384 1.392.256.309.672.464 1.248.464.17 0 .341-.021.512-.064a9.35 9.35 0 0 0 .464-.128l.224.992a2.632 2.632 0 0 1-.608.208 3.294 3.294 0 0 1-.768.096Zm5.226 0c-1.867 0-2.8-1.029-2.8-3.088v-4.832h1.296v4.816c0 .693.138 1.205.416 1.536.288.331.736.496 1.343.496.662 0 1.201-.219 1.617-.656.416-.448.624-1.04.624-1.776v-4.416h1.296V155h-1.264v-1.312a2.63 2.63 0 0 1-1.04 1.088 2.996 2.996 0 0 1-1.488.368Zm6.216-.144v-7.776h1.264v1.328a2.53 2.53 0 0 1 1.088-1.104c.47-.245.998-.368 1.584-.368 1.846 0 2.768 1.024 2.768 3.072V155h-1.296v-4.768c0-.725-.144-1.253-.432-1.584-.277-.341-.725-.512-1.344-.512-.714 0-1.285.224-1.712.672-.416.437-.624 1.024-.624 1.76V155h-1.296Zm8.934-9.712v-1.456h1.6v1.456h-1.6Zm.16 9.712v-7.776h1.296V155h-1.296Zm6.839.144c-.918 0-1.606-.24-2.064-.72-.459-.491-.688-1.195-.688-2.112v-4.08h-1.52v-1.008h1.52v-2.384h1.296v2.384h2.464v1.008h-2.464v3.952c0 .608.128 1.072.384 1.392.256.309.672.464 1.248.464.17 0 .341-.021.512-.064a9.35 9.35 0 0 0 .464-.128l.224.992a2.632 2.632 0 0 1-.608.208 3.294 3.294 0 0 1-.768.096Zm2.313-9.856v-1.456h1.601v1.456h-1.601Zm.161 9.712v-7.776h1.296V155h-1.296Zm7.222.144c-1.226 0-2.197-.357-2.912-1.072-.714-.725-1.072-1.707-1.072-2.944 0-.8.16-1.504.48-2.112a3.47 3.47 0 0 1 1.312-1.424c.566-.341 1.216-.512 1.952-.512 1.056 0 1.883.341 2.48 1.024.598.672.896 1.6.896 2.784v.496h-5.856c.043.885.299 1.563.768 2.032.47.459 1.12.688 1.952.688.47 0 .918-.069 1.344-.208a3.76 3.76 0 0 0 1.216-.72l.448.912c-.352.331-.8.592-1.344.784a5.236 5.236 0 0 1-1.664.272Zm-.208-7.104c-.736 0-1.317.229-1.744.688-.426.459-.677 1.061-.752 1.808h4.72c-.032-.789-.24-1.403-.624-1.84-.373-.437-.906-.656-1.6-.656Zm7.844 7.104a5.73 5.73 0 0 1-1.728-.256c-.544-.171-.992-.411-1.344-.72l.416-.912c.384.309.805.539 1.264.688.469.139.944.208 1.424.208.608 0 1.067-.112 1.376-.336.309-.224.464-.528.464-.912 0-.299-.101-.533-.304-.704-.203-.181-.523-.32-.96-.416l-1.456-.32c-1.323-.288-1.984-.971-1.984-2.048 0-.704.277-1.269.832-1.696.565-.427 1.301-.64 2.208-.64.533 0 1.04.085 1.52.256a3 3 0 0 1 1.216.72l-.432.912a3.12 3.12 0 0 0-1.088-.656 3.29 3.29 0 0 0-1.216-.24c-.597 0-1.051.117-1.36.352a1.11 1.11 0 0 0-.464.928c0 .597.395.981 1.184 1.152l1.456.304c.683.149 1.2.389 1.552.72.352.32.528.757.528 1.312 0 .715-.283 1.28-.848 1.696-.565.405-1.317.608-2.256.608Z" fill="#fff"/></svg>