<svg width="25" height="25" viewBox="0 0 25 25" fill="none" xmlns="http://www.w3.org/2000/svg">
<path d="M12.5 0.25C5.97676 0.25 0.6875 5.73516 0.6875 12.5C0.6875 19.2648 5.97676 24.75 12.5 24.75C19.0232 24.75 24.3125 19.2648 24.3125 12.5C24.3125 5.73516 19.0232 0.25 12.5 0.25ZM18.1769 9.48398C18.1848 9.6125 18.1848 9.74648 18.1848 9.87773C18.1848 13.8918 15.2369 18.5156 9.8501 18.5156C8.18896 18.5156 6.64912 18.0152 5.35186 17.1539C5.58916 17.1812 5.81592 17.1922 6.0585 17.1922C7.42959 17.1922 8.68994 16.7109 9.69453 15.8961C8.40781 15.8688 7.32676 14.9938 6.95762 13.7906C7.4085 13.859 7.81455 13.859 8.27861 13.7359C7.61608 13.5963 7.02057 13.2232 6.59327 12.6799C6.16596 12.1366 5.93322 11.4566 5.93457 10.7555V10.7172C6.32217 10.9441 6.77832 11.0836 7.25557 11.1027C6.85437 10.8255 6.52535 10.4498 6.29768 10.0091C6.07 9.56834 5.95072 9.07616 5.95039 8.57617C5.95039 8.01016 6.09277 7.49336 6.34854 7.04492C7.08392 7.98373 8.00157 8.75156 9.04185 9.2985C10.0821 9.84544 11.2217 10.1592 12.3866 10.2195C11.9727 8.15508 13.4598 6.48438 15.2475 6.48438C16.0912 6.48438 16.8506 6.85078 17.3858 7.44141C18.0477 7.31289 18.6805 7.05586 19.2447 6.71133C19.0259 7.41406 18.5671 8.00742 17.958 8.38203C18.5486 8.31641 19.1182 8.14688 19.6455 7.90898C19.2474 8.51602 18.749 9.05469 18.1769 9.48398Z" fill="white"/>
</svg>
